<svg xmlns="http://www.w3.org/2000/svg" xmlns:xlink="http://www.w3.org/1999/xlink" width="1563" zoomAndPan="magnify" viewBox="0 0 1172.25 449.999984" height="600" preserveAspectRatio="xMidYMid meet" version="1.2"><g id="45d5c29455"><path style=" stroke:none;fill-rule:nonzero;fill:#000000;fill-opacity:1;" d="M 236.097656 48.957031 C 210.765625 55.476562 189.402344 65.820312 169.390625 81.335938 C 156.273438 91.527344 140.460938 108.394531 131.914062 121.359375 L 128.769531 126.082031 L 133.488281 120.835938 C 158.222656 93.101562 187.605469 74.515625 221.109375 65.296875 C 255.0625 56 292.164062 56.675781 323.492188 67.242188 C 327.089844 68.519531 330.238281 69.34375 330.386719 69.117188 C 330.914062 68.59375 314.875 61.097656 306.328125 57.949219 C 292.539062 52.777344 276.046875 49.253906 259.335938 47.757812 C 247.042969 46.707031 244.117188 46.855469 236.097656 48.957031 Z M 236.097656 48.957031 "/><path style=" stroke:none;fill-rule:nonzero;fill:#000000;fill-opacity:1;" d="M 220.359375 48.957031 C 175.6875 55.777344 135.964844 78.113281 107.929688 112.363281 C 100.886719 120.910156 94.664062 129.980469 90.390625 137.773438 C 88.21875 141.820312 87.695312 143.769531 87.019531 150.289062 C 84.546875 173.75 87.542969 201.632812 94.8125 223.519531 L 97.363281 231.015625 L 96.839844 224.269531 C 95.9375 212.875 96.386719 194.8125 97.738281 185.667969 C 106.957031 123.984375 149.003906 73.613281 207.316406 54.578125 C 213.464844 52.554688 220.734375 50.53125 223.582031 49.929688 C 226.355469 49.40625 228.605469 48.730469 228.605469 48.355469 C 228.605469 48.054688 228.378906 47.757812 228.078125 47.832031 C 227.703125 47.90625 224.257812 48.355469 220.359375 48.957031 Z M 220.359375 48.957031 "/><path style=" stroke:none;fill-rule:nonzero;fill:#000000;fill-opacity:1;" d="M 175.011719 117.011719 C 164.292969 125.183594 153.203125 138.597656 147.054688 150.816406 C 130.867188 183.269531 135.136719 224.570312 157.625 252.527344 C 161.894531 257.847656 160.546875 257.246094 152.675781 250.351562 C 144.65625 243.382812 136.710938 234.164062 129.890625 224.117188 C 126.742188 219.472656 124.046875 215.722656 123.96875 215.875 C 123.519531 216.324219 126.742188 229.367188 128.992188 235.960938 C 139.636719 267.890625 161.894531 294.949219 192.027344 312.5625 C 198.921875 316.609375 198.097656 316.535156 187.003906 312.261719 C 172.464844 306.640625 157.25 297.046875 144.957031 285.730469 L 138.511719 279.882812 L 141.660156 286.179688 C 150.128906 303.042969 163.546875 319.234375 179.511719 331.976562 C 190.753906 340.894531 204.84375 348.539062 219.984375 354.011719 C 224.929688 355.808594 228.527344 357.234375 228.078125 357.234375 C 227.554688 357.308594 223.28125 356.484375 218.636719 355.507812 C 200.273438 351.613281 178.011719 342.617188 161.371094 332.347656 C 141.132812 319.757812 120.671875 299.820312 107.480469 279.734375 C 87.09375 248.703125 77.425781 215.347656 78.101562 178.324219 C 78.175781 170.453125 78.25 163.933594 78.175781 163.933594 C 77.648438 163.933594 73.304688 179.148438 71.578125 186.792969 C 68.132812 202.234375 67.230469 211.902344 67.757812 229.515625 C 68.207031 246.15625 69.40625 255.222656 73.003906 269.390625 C 91.066406 340.144531 150.355469 392.234375 223.582031 401.90625 C 234.675781 403.328125 254.835938 403.328125 266.078125 401.980469 C 286.917969 399.355469 306.480469 393.585938 324.46875 384.589844 C 353.324219 370.199219 375.734375 350.5625 393.796875 323.730469 C 400.46875 313.6875 409.238281 296.523438 412.984375 286.105469 C 414.335938 282.207031 416.285156 277.335938 417.257812 275.3125 C 421.378906 267.066406 431.5 260.171875 440.792969 259.347656 C 447.539062 258.671875 445.140625 257.472656 437.121094 257.472656 C 426.101562 257.472656 418.308594 259.945312 410.585938 266.09375 C 406.691406 269.164062 406.613281 269.164062 400.992188 268.941406 C 390.425781 268.566406 382.332031 271.714844 375.058594 278.910156 C 370.414062 283.554688 366.441406 290.453125 365.390625 295.847656 C 363.066406 307.390625 351.976562 318.558594 341.105469 320.28125 C 334.734375 321.332031 327.539062 317.507812 324.46875 311.4375 C 323.269531 309.039062 322.96875 307.316406 323.191406 303.34375 C 323.417969 297.570312 322.667969 297.421875 319.894531 302.894531 C 317.945312 306.789062 317.945312 313.535156 319.96875 317.507812 C 323.644531 324.554688 329.714844 327.253906 339.007812 325.980469 C 347.328125 324.78125 353.773438 321.480469 359.769531 315.410156 L 364.640625 310.464844 L 364.417969 314.960938 C 363.667969 329.800781 354 342.917969 339.757812 348.3125 C 334.359375 350.339844 324.917969 351.085938 319.070312 349.886719 C 308.953125 347.714844 298.683594 340.21875 294.035156 331.300781 C 289.238281 322.230469 288.191406 313.984375 290.4375 302.21875 C 291.113281 298.621094 291.414062 294.875 291.113281 292.851562 C 289.390625 280.78125 281.59375 271.714844 270.277344 268.492188 C 266.753906 267.441406 264.355469 267.292969 258.734375 267.664062 C 236.546875 269.316406 222.234375 266.839844 205.894531 258.671875 C 196.75 254.097656 191.128906 250.128906 183.707031 243.082031 C 175.386719 235.0625 169.390625 226.96875 164.519531 216.847656 C 148.554688 184.09375 153.425781 145.945312 177.1875 117.988281 C 179.511719 115.214844 181.160156 112.964844 180.859375 112.964844 C 180.484375 112.964844 177.9375 114.765625 175.011719 117.011719 Z M 175.011719 117.011719 "/><path style=" stroke:none;fill-rule:nonzero;fill:#000000;fill-opacity:1;" d="M 336.160156 120.234375 C 329.488281 121.808594 325.589844 124.582031 322.820312 129.753906 C 321.167969 132.753906 321.167969 133.425781 321.167969 161.308594 C 321.167969 189.714844 321.167969 189.789062 322.96875 193.386719 C 324.84375 197.285156 328.289062 200.285156 332.5625 201.859375 C 336.386719 203.207031 396.722656 203.355469 401.144531 202.007812 C 405.640625 200.660156 410.363281 196.085938 412.011719 191.441406 C 413.210938 187.917969 413.359375 184.769531 413.359375 160.933594 C 413.359375 134.476562 413.359375 134.324219 411.5625 130.355469 C 409.6875 126.15625 406.914062 123.382812 402.566406 121.359375 C 400.167969 120.234375 396.269531 120.085938 368.765625 120.011719 C 351.675781 119.933594 336.984375 120.011719 336.160156 120.234375 Z M 392.375 138.074219 L 394.246094 139.871094 L 394.246094 161.457031 C 394.171875 184.695312 394.171875 184.84375 390.199219 186.417969 C 388.925781 186.867188 379.855469 187.167969 367.191406 187.167969 C 344.105469 187.167969 341.707031 186.792969 340.207031 182.96875 C 339.757812 181.621094 339.53125 173.300781 339.683594 160.484375 L 339.90625 140.097656 L 341.707031 138.148438 L 343.503906 136.199219 L 390.574219 136.199219 Z M 392.375 138.074219 "/><path style=" stroke:none;fill-rule:nonzero;fill:#000000;fill-opacity:1;" d="M 638.964844 120.234375 C 632.296875 121.808594 628.398438 124.582031 625.625 129.753906 C 623.976562 132.753906 623.976562 133.425781 623.976562 161.308594 C 623.976562 189.714844 623.976562 189.789062 625.773438 193.386719 C 627.648438 197.285156 631.097656 200.285156 635.367188 201.859375 C 639.789062 203.433594 695.554688 203.355469 700.203125 201.78125 C 704.398438 200.285156 708.070312 196.835938 710.019531 192.414062 C 711.894531 188.214844 712.792969 175.101562 711.292969 173.300781 C 710.546875 172.402344 708.597656 172.175781 702.375 172.175781 C 698.027344 172.175781 694.054688 172.476562 693.605469 172.777344 C 693.15625 173.078125 692.632812 175.550781 692.40625 178.398438 C 692.183594 182.371094 691.730469 183.792969 690.457031 185.144531 C 688.808594 186.792969 688.507812 186.792969 667.449219 186.792969 C 646.238281 186.792969 646.085938 186.792969 644.4375 185.070312 C 642.714844 183.417969 642.714844 183.121094 642.488281 162.433594 C 642.265625 138.597656 642.414062 137.625 647.4375 136.273438 C 651.035156 135.226562 683.789062 135.226562 687.460938 136.199219 C 690.984375 137.175781 691.957031 138.972656 692.480469 145.195312 L 692.929688 150.066406 L 711.667969 150.066406 L 711.894531 144.21875 C 712.34375 132.902344 709.046875 125.632812 701.851562 121.960938 L 698.253906 120.085938 L 669.320312 119.933594 C 653.433594 119.933594 639.789062 120.011719 638.964844 120.234375 Z M 638.964844 120.234375 "/><path style=" stroke:none;fill-rule:nonzero;fill:#000000;fill-opacity:1;" d="M 210.765625 161.457031 L 210.988281 202.53125 L 219.535156 202.757812 C 225.90625 202.90625 228.304688 202.683594 228.753906 202.007812 C 229.054688 201.484375 229.351562 188.441406 229.351562 173.078125 C 229.351562 157.113281 229.652344 145.195312 230.027344 145.34375 C 230.402344 145.417969 240.894531 158.234375 253.339844 173.675781 C 265.78125 189.117188 276.347656 202.007812 276.871094 202.308594 C 277.324219 202.609375 282.34375 202.90625 287.964844 202.90625 C 298.007812 202.90625 298.308594 202.832031 298.683594 201.183594 C 298.910156 200.285156 298.984375 181.847656 298.910156 160.183594 L 298.683594 120.835938 L 289.539062 120.609375 L 280.320312 120.386719 L 280.320312 149.015625 C 280.320312 170.976562 280.097656 177.5 279.421875 177.273438 C 278.898438 177.050781 268.402344 164.308594 255.960938 148.867188 L 233.476562 120.835938 L 222.007812 120.609375 L 210.617188 120.386719 Z M 210.765625 161.457031 "/><path style=" stroke:none;fill-rule:nonzero;fill:#000000;fill-opacity:1;" d="M 423.480469 121.882812 C 423.480469 123.53125 459.832031 199.683594 461.554688 201.558594 C 462.527344 202.683594 464.027344 202.90625 471.824219 202.90625 C 479.617188 202.90625 481.117188 202.683594 482.089844 201.558594 C 483.890625 199.609375 520.167969 123.683594 520.167969 121.960938 C 520.167969 120.535156 519.640625 120.460938 510.875 120.460938 C 504.351562 120.460938 501.355469 120.761719 500.828125 121.359375 C 500.453125 121.882812 494.984375 133.425781 488.6875 147.066406 C 482.390625 160.632812 476.019531 174.351562 474.597656 177.421875 L 471.972656 182.96875 L 470.324219 179.671875 C 469.351562 177.796875 462.980469 164.15625 456.082031 149.316406 C 449.1875 134.476562 443.191406 121.882812 442.742188 121.359375 C 442.292969 120.761719 439.292969 120.460938 432.773438 120.460938 C 424.152344 120.460938 423.480469 120.535156 423.480469 121.882812 Z M 423.480469 121.882812 "/><path style=" stroke:none;fill-rule:nonzero;fill:#000000;fill-opacity:1;" d="M 555.84375 122.109375 C 555.246094 123.082031 546.402344 141.148438 536.28125 162.285156 C 520.917969 193.988281 517.917969 200.882812 518.667969 201.78125 C 519.417969 202.683594 521.441406 202.90625 527.664062 202.90625 C 537.105469 202.90625 536.582031 203.28125 541.003906 193.539062 L 544.078125 186.792969 L 588.523438 186.792969 L 591.671875 193.613281 C 593.320312 197.359375 595.195312 201.035156 595.792969 201.707031 C 597.21875 203.355469 613.707031 203.507812 614.308594 201.859375 C 614.683594 200.957031 592.195312 152.988281 578.929688 126.230469 L 576.082031 120.460938 L 566.488281 120.460938 C 557.417969 120.460938 556.894531 120.535156 555.84375 122.109375 Z M 574.433594 155.460938 L 581.476562 170.679688 L 550.972656 170.679688 L 556.667969 158.835938 C 559.742188 152.390625 563.113281 145.269531 564.089844 143.019531 C 565.214844 140.472656 566.1875 139.199219 566.636719 139.648438 C 567.011719 140.023438 570.535156 147.144531 574.433594 155.460938 Z M 574.433594 155.460938 "/><path style=" stroke:none;fill-rule:nonzero;fill:#000000;fill-opacity:1;" d="M 733.179688 161.457031 L 733.40625 202.53125 L 771.179688 202.757812 C 800.9375 202.90625 809.105469 202.757812 809.632812 202.007812 C 810.304688 200.882812 810.457031 190.089844 809.78125 188.367188 C 809.40625 187.316406 806.109375 187.167969 780.550781 187.167969 L 751.769531 187.167969 L 751.769531 168.429688 L 795.316406 168.429688 L 795.089844 161.085938 L 794.867188 153.8125 L 773.355469 153.589844 L 751.769531 153.4375 L 751.769531 135.449219 L 780.101562 135.300781 L 808.359375 135.074219 L 808.582031 127.730469 L 808.808594 120.460938 L 733.03125 120.460938 Z M 733.179688 161.457031 "/><path style=" stroke:none;fill-rule:nonzero;fill:#000000;fill-opacity:1;" d="M 827.246094 120.984375 C 826.945312 121.210938 826.722656 139.347656 826.722656 161.308594 C 826.722656 191.289062 826.945312 201.332031 827.621094 202.007812 C 828.894531 203.28125 897.25 203.28125 898.523438 202.007812 C 899.574219 200.957031 899.800781 188.890625 898.824219 187.390625 C 898.375 186.644531 891.855469 186.417969 871.992188 186.269531 L 845.832031 186.042969 L 845.609375 153.214844 L 845.460938 120.460938 L 836.613281 120.460938 C 831.742188 120.460938 827.46875 120.683594 827.246094 120.984375 Z M 827.246094 120.984375 "/><path style=" stroke:none;fill-rule:nonzero;fill:#000000;fill-opacity:1;" d="M 907.21875 121.433594 C 906.996094 122.035156 906.917969 125.332031 907.070312 128.78125 L 907.292969 135.074219 L 919.511719 135.300781 L 931.652344 135.449219 L 931.652344 187.167969 L 920.5625 187.167969 C 912.765625 187.167969 909.09375 187.46875 908.117188 188.140625 C 907.070312 188.890625 906.917969 190.089844 907.070312 195.785156 L 907.292969 202.53125 L 940.574219 202.757812 C 966.730469 202.90625 974 202.757812 974.527344 202.007812 C 974.828125 201.484375 975.125 198.261719 975.125 194.8125 C 975.125 188.890625 975.050781 188.589844 973.175781 187.917969 C 972.128906 187.46875 966.582031 187.167969 960.808594 187.167969 L 950.390625 187.167969 L 950.390625 135.449219 L 962.382812 135.449219 C 976.25 135.449219 975.351562 136.125 974.976562 126.457031 L 974.75 120.835938 L 941.171875 120.609375 C 913.664062 120.460938 907.59375 120.609375 907.21875 121.433594 Z M 907.21875 121.433594 "/><path style=" stroke:none;fill-rule:nonzero;fill:#000000;fill-opacity:1;" d="M 992.515625 161.457031 L 992.738281 202.53125 L 1010.726562 202.53125 L 1010.953125 186.191406 L 1011.101562 169.929688 L 1032.015625 169.929688 L 1042.582031 185.292969 C 1048.429688 193.761719 1053.675781 201.183594 1054.351562 201.78125 C 1055.25 202.757812 1057.199219 202.90625 1064.917969 202.757812 C 1073.238281 202.53125 1074.4375 202.382812 1074.664062 201.257812 C 1074.8125 200.507812 1069.191406 191.664062 1061.472656 180.496094 L 1047.980469 161.007812 L 1061.019531 142.121094 C 1068.214844 131.777344 1074.0625 122.632812 1074.0625 121.882812 C 1074.0625 120.535156 1073.3125 120.460938 1064.320312 120.460938 L 1054.574219 120.460938 L 1051.351562 124.808594 C 1049.628906 127.207031 1044.53125 134.625 1039.960938 141.296875 L 1031.714844 153.363281 L 1021.445312 153.4375 L 1011.101562 153.4375 L 1010.953125 137.097656 L 1010.726562 120.835938 L 1001.507812 120.609375 L 992.363281 120.386719 Z M 992.515625 161.457031 "/></g></svg>