<?xml version="1.0" standalone="no"?>
<!DOCTYPE svg PUBLIC "-//W3C//DTD SVG 20010904//EN"
 "http://www.w3.org/TR/2001/REC-SVG-20010904/DTD/svg10.dtd">
<svg version="1.0" xmlns="http://www.w3.org/2000/svg"
 width="1563.000000pt" height="1563.000000pt" viewBox="0 0 1563.000000 1563.000000"
 preserveAspectRatio="xMidYMid meet">

<g transform="translate(0.000000,1563.000000) scale(0.100000,-0.100000)"
fill="#000000" stroke="none">
<path d="M3150 10274 c-338 -87 -623 -225 -890 -432 -175 -136 -386 -361 -500
-534 l-42 -63 63 70 c330 370 722 618 1169 741 453 124 948 115 1366 -26 48
-17 90 -28 92 -25 7 7 -207 107 -321 149 -184 69 -404 116 -627 136 -164 14
-203 12 -310 -16z"/>
<path d="M2940 10274 c-596 -91 -1126 -389 -1500 -846 -94 -114 -177 -235
-234 -339 -29 -54 -36 -80 -45 -167 -33 -313 7 -685 104 -977 l34 -100 -7 90
c-12 152 -6 393 12 515 123 823 684 1495 1462 1749 82 27 179 54 217 62 37 7
67 16 67 21 0 4 -3 8 -7 7 -5 -1 -51 -7 -103 -15z"/>
<path d="M2335 9366 c-143 -109 -291 -288 -373 -451 -216 -433 -159 -984 141
-1357 57 -71 39 -63 -66 29 -107 93 -213 216 -304 350 -42 62 -78 112 -79 110
-6 -6 37 -180 67 -268 142 -426 439 -787 841 -1022 92 -54 81 -53 -67 4 -194
75 -397 203 -561 354 l-86 78 42 -84 c113 -225 292 -441 505 -611 150 -119
338 -221 540 -294 66 -24 114 -43 108 -43 -7 -1 -64 10 -126 23 -245 52 -542
172 -764 309 -270 168 -543 434 -719 702 -272 414 -401 859 -392 1353 1 105 2
192 1 192 -7 0 -65 -203 -88 -305 -46 -206 -58 -335 -51 -570 6 -222 22 -343
70 -532 241 -944 1032 -1639 2009 -1768 148 -19 417 -19 567 -1 278 35 539
112 779 232 385 192 684 454 925 812 89 134 206 363 256 502 18 52 44 117 57
144 55 110 190 202 314 213 90 9 58 25 -49 25 -147 0 -251 -33 -354 -115 -52
-41 -53 -41 -128 -38 -141 5 -249 -37 -346 -133 -62 -62 -115 -154 -129 -226
-31 -154 -179 -303 -324 -326 -85 -14 -181 37 -222 118 -16 32 -20 55 -17 108
3 77 -7 79 -44 6 -26 -52 -26 -142 1 -195 49 -94 130 -130 254 -113 111 16
197 60 277 141 l65 66 -3 -60 c-10 -198 -139 -373 -329 -445 -72 -27 -198 -37
-276 -21 -135 29 -272 129 -334 248 -64 121 -78 231 -48 388 9 48 13 98 9 125
-23 161 -127 282 -278 325 -47 14 -79 16 -154 11 -296 -22 -487 11 -705 120
-122 61 -197 114 -296 208 -111 107 -191 215 -256 350 -213 437 -148 946 169
1319 31 37 53 67 49 67 -5 0 -39 -24 -78 -54z"/>
<path d="M4485 9323 c-89 -21 -141 -58 -178 -127 -22 -40 -22 -49 -22 -421 0
-379 0 -380 24 -428 25 -52 71 -92 128 -113 51 -18 856 -20 915 -2 60 18 123
79 145 141 16 47 18 89 18 407 0 353 0 355 -24 408 -25 56 -62 93 -120 120
-32 15 -84 17 -451 18 -228 1 -424 0 -435 -3z m750 -238 l25 -24 0 -288 c-1
-310 -1 -312 -54 -333 -17 -6 -138 -10 -307 -10 -308 0 -340 5 -360 56 -6 18
-9 129 -7 300 l3 272 24 26 24 26 314 0 314 0 24 -25z"/>
<path d="M8525 9323 c-89 -21 -141 -58 -178 -127 -22 -40 -22 -49 -22 -421 0
-379 0 -380 24 -428 25 -52 71 -92 128 -113 59 -21 803 -20 865 1 56 20 105
66 131 125 25 56 37 231 17 255 -10 12 -36 15 -119 15 -58 0 -111 -4 -117 -8
-6 -4 -13 -37 -16 -75 -3 -53 -9 -72 -26 -90 -22 -22 -26 -22 -307 -22 -283 0
-285 0 -307 23 -23 22 -23 26 -26 302 -3 318 -1 331 66 349 48 14 485 14 534
1 47 -13 60 -37 67 -120 l6 -65 125 0 125 0 3 78 c6 151 -38 248 -134 297
l-48 25 -386 2 c-212 0 -394 -1 -405 -4z"/>
<path d="M2812 8773 l3 -548 114 -3 c85 -2 117 1 123 10 4 7 8 181 8 386 0
213 4 372 9 370 5 -1 145 -172 311 -378 166 -206 307 -378 314 -382 6 -4 73
-8 148 -8 134 0 138 1 143 23 3 12 4 258 3 547 l-3 525 -122 3 -123 3 0 -382
c0 -293 -3 -380 -12 -377 -7 3 -147 173 -313 379 l-300 374 -153 3 -152 3 2
-548z"/>
<path d="M5650 9301 c0 -22 485 -1038 508 -1063 13 -15 33 -18 137 -18 104 0
124 3 137 18 24 26 508 1039 508 1062 0 19 -7 20 -124 20 -87 0 -127 -4 -134
-12 -5 -7 -78 -161 -162 -343 -84 -181 -169 -364 -188 -405 l-35 -74 -22 44
c-13 25 -98 207 -190 405 -92 198 -172 366 -178 373 -6 8 -46 12 -133 12 -115
0 -124 -1 -124 -19z"/>
<path d="M7416 9298 c-8 -13 -126 -254 -261 -536 -205 -423 -245 -515 -235
-527 10 -12 37 -15 120 -15 126 0 119 -5 178 125 l41 90 297 0 296 0 42 -91
c22 -50 47 -99 55 -108 19 -22 239 -24 247 -2 5 12 -295 652 -472 1009 l-38
77 -128 0 c-121 0 -128 -1 -142 -22z m248 -445 l94 -203 -203 0 -204 0 76 158
c41 86 86 181 99 211 15 34 28 51 34 45 5 -5 52 -100 104 -211z"/>
<path d="M9782 8773 l3 -548 504 -3 c397 -2 506 0 513 10 9 15 11 159 2 182
-5 14 -49 16 -390 16 l-384 0 0 125 0 125 290 0 291 0 -3 98 -3 97 -287 3
-288 2 0 120 0 120 378 2 377 3 3 98 3 97 -506 0 -505 0 2 -547z"/>
<path d="M11037 9313 c-4 -3 -7 -245 -7 -538 0 -400 3 -534 12 -543 17 -17
929 -17 946 0 14 14 17 175 4 195 -6 10 -93 13 -358 15 l-349 3 -3 438 -2 437
-118 0 c-65 0 -122 -3 -125 -7z"/>
<path d="M12104 9307 c-3 -8 -4 -52 -2 -98 l3 -84 163 -3 162 -2 0 -345 0
-345 -148 0 c-104 0 -153 -4 -166 -13 -14 -10 -16 -26 -14 -102 l3 -90 444 -3
c349 -2 446 0 453 10 4 7 8 50 8 96 0 79 -1 83 -26 92 -14 6 -88 10 -165 10
l-139 0 0 345 0 345 160 0 c185 0 173 -9 168 120 l-3 75 -448 3 c-367 2 -448
0 -453 -11z"/>
<path d="M13242 8773 l3 -548 120 0 120 0 3 218 2 217 140 0 139 0 141 -205
c78 -113 148 -212 157 -220 12 -13 38 -15 141 -13 111 3 127 5 130 20 2 10
-73 128 -176 277 l-180 260 174 252 c96 138 174 260 174 270 0 18 -10 19 -130
19 l-130 0 -43 -58 c-23 -32 -91 -131 -152 -220 l-110 -161 -137 -1 -138 0 -2
218 -3 217 -123 3 -122 3 2 -548z"/>
</g>
</svg>
