<svg xmlns="http://www.w3.org/2000/svg" xmlns:xlink="http://www.w3.org/1999/xlink" width="1563" zoomAndPan="magnify" viewBox="0 0 1172.25 1172.249948" height="1563" preserveAspectRatio="xMidYMid meet" version="1.0"><defs><g/></defs><path fill="#000000" d="M 236.097656 409.707031 C 210.765625 416.226562 189.402344 426.570312 169.390625 442.085938 C 156.273438 452.277344 140.460938 469.144531 131.914062 482.109375 L 128.769531 486.832031 L 133.488281 481.585938 C 158.222656 453.851562 187.605469 435.265625 221.109375 426.046875 C 255.0625 416.75 292.164062 417.425781 323.492188 427.996094 C 327.089844 429.269531 330.238281 430.09375 330.386719 429.867188 C 330.914062 429.34375 314.875 421.847656 306.328125 418.699219 C 292.539062 413.527344 276.046875 410.003906 259.335938 408.507812 C 247.042969 407.457031 244.117188 407.605469 236.097656 409.707031 Z M 236.097656 409.707031 " fill-opacity="1" fill-rule="nonzero"/><path fill="#000000" d="M 220.359375 409.707031 C 175.6875 416.527344 135.964844 438.863281 107.929688 473.117188 C 100.886719 481.660156 94.664062 490.730469 90.390625 498.523438 C 88.21875 502.570312 87.695312 504.519531 87.019531 511.042969 C 84.546875 534.5 87.542969 562.382812 94.8125 584.269531 L 97.363281 591.765625 L 96.839844 585.019531 C 95.9375 573.625 96.386719 555.5625 97.738281 546.417969 C 106.957031 484.734375 149.003906 434.363281 207.316406 415.328125 C 213.464844 413.304688 220.734375 411.28125 223.582031 410.679688 C 226.355469 410.15625 228.605469 409.480469 228.605469 409.105469 C 228.605469 408.804688 228.378906 408.507812 228.078125 408.582031 C 227.703125 408.65625 224.257812 409.105469 220.359375 409.707031 Z M 220.359375 409.707031 " fill-opacity="1" fill-rule="nonzero"/><path fill="#000000" d="M 175.011719 477.761719 C 164.292969 485.933594 153.203125 499.347656 147.054688 511.566406 C 130.867188 544.019531 135.136719 585.320312 157.625 613.277344 C 161.894531 618.597656 160.546875 617.996094 152.675781 611.101562 C 144.65625 604.132812 136.710938 594.914062 129.890625 584.867188 C 126.742188 580.222656 124.046875 576.472656 123.96875 576.625 C 123.519531 577.074219 126.742188 590.117188 128.992188 596.710938 C 139.636719 628.640625 161.894531 655.699219 192.027344 673.3125 C 198.921875 677.359375 198.097656 677.285156 187.003906 673.011719 C 172.464844 667.390625 157.25 657.796875 144.957031 646.480469 L 138.511719 640.632812 L 141.660156 646.929688 C 150.128906 663.792969 163.546875 679.984375 179.511719 692.726562 C 190.753906 701.644531 204.84375 709.289062 219.984375 714.761719 C 224.929688 716.558594 228.527344 717.984375 228.078125 717.984375 C 227.554688 718.058594 223.28125 717.234375 218.636719 716.261719 C 200.273438 712.363281 178.011719 703.367188 161.371094 693.101562 C 141.132812 680.507812 120.671875 660.570312 107.480469 640.484375 C 87.09375 609.453125 77.425781 576.097656 78.101562 539.074219 C 78.175781 531.203125 78.25 524.683594 78.175781 524.683594 C 77.648438 524.683594 73.304688 539.898438 71.578125 547.542969 C 68.132812 562.984375 67.230469 572.652344 67.757812 590.265625 C 68.207031 606.90625 69.40625 615.972656 73.003906 630.140625 C 91.066406 700.894531 150.355469 752.984375 223.582031 762.65625 C 234.675781 764.078125 254.835938 764.078125 266.078125 762.730469 C 286.917969 760.105469 306.480469 754.335938 324.46875 745.339844 C 353.324219 730.949219 375.734375 711.3125 393.796875 684.480469 C 400.46875 674.4375 409.238281 657.273438 412.984375 646.855469 C 414.335938 642.957031 416.285156 638.085938 417.257812 636.0625 C 421.378906 627.816406 431.5 620.921875 440.792969 620.097656 C 447.539062 619.421875 445.140625 618.222656 437.121094 618.222656 C 426.101562 618.222656 418.308594 620.695312 410.585938 626.84375 C 406.691406 629.914062 406.613281 629.914062 400.992188 629.691406 C 390.425781 629.316406 382.332031 632.464844 375.058594 639.660156 C 370.414062 644.304688 366.441406 651.203125 365.390625 656.597656 C 363.066406 668.140625 351.976562 679.308594 341.105469 681.03125 C 334.734375 682.082031 327.539062 678.257812 324.46875 672.1875 C 323.269531 669.789062 322.96875 668.066406 323.191406 664.09375 C 323.417969 658.320312 322.667969 658.171875 319.894531 663.644531 C 317.945312 667.539062 317.945312 674.285156 319.96875 678.257812 C 323.644531 685.304688 329.714844 688.003906 339.007812 686.730469 C 347.328125 685.53125 353.773438 682.230469 359.769531 676.160156 L 364.640625 671.214844 L 364.417969 675.710938 C 363.667969 690.550781 354 703.667969 339.757812 709.0625 C 334.359375 711.089844 324.917969 711.835938 319.070312 710.636719 C 308.953125 708.464844 298.683594 700.96875 294.035156 692.050781 C 289.238281 682.980469 288.191406 674.738281 290.4375 662.96875 C 291.113281 659.371094 291.414062 655.625 291.113281 653.601562 C 289.390625 641.53125 281.59375 632.464844 270.277344 629.242188 C 266.753906 628.191406 264.355469 628.042969 258.734375 628.417969 C 236.546875 630.066406 222.234375 627.589844 205.894531 619.421875 C 196.75 614.851562 191.128906 610.878906 183.707031 603.832031 C 175.386719 595.8125 169.390625 587.71875 164.519531 577.597656 C 148.554688 544.84375 153.425781 506.695312 177.1875 478.738281 C 179.511719 475.964844 181.160156 473.714844 180.859375 473.714844 C 180.484375 473.714844 177.9375 475.515625 175.011719 477.761719 Z M 175.011719 477.761719 " fill-opacity="1" fill-rule="nonzero"/><path fill="#000000" d="M 336.160156 480.984375 C 329.488281 482.558594 325.589844 485.332031 322.820312 490.503906 C 321.167969 493.503906 321.167969 494.175781 321.167969 522.058594 C 321.167969 550.464844 321.167969 550.539062 322.96875 554.136719 C 324.84375 558.035156 328.289062 561.035156 332.5625 562.609375 C 336.386719 563.957031 396.722656 564.105469 401.144531 562.757812 C 405.640625 561.410156 410.363281 556.835938 412.011719 552.191406 C 413.210938 548.667969 413.359375 545.519531 413.359375 521.683594 C 413.359375 495.226562 413.359375 495.078125 411.5625 491.105469 C 409.6875 486.90625 406.914062 484.132812 402.566406 482.109375 C 400.167969 480.984375 396.269531 480.835938 368.765625 480.761719 C 351.675781 480.6875 336.984375 480.761719 336.160156 480.984375 Z M 392.375 498.824219 L 394.246094 500.621094 L 394.246094 522.210938 C 394.171875 545.445312 394.171875 545.59375 390.199219 547.167969 C 388.925781 547.617188 379.855469 547.917969 367.191406 547.917969 C 344.105469 547.917969 341.707031 547.542969 340.207031 543.71875 C 339.757812 542.371094 339.53125 534.050781 339.683594 521.234375 L 339.90625 500.847656 L 341.707031 498.898438 L 343.503906 496.949219 L 390.574219 496.949219 Z M 392.375 498.824219 " fill-opacity="1" fill-rule="nonzero"/><path fill="#000000" d="M 638.964844 480.984375 C 632.296875 482.558594 628.398438 485.332031 625.625 490.503906 C 623.976562 493.503906 623.976562 494.175781 623.976562 522.058594 C 623.976562 550.464844 623.976562 550.539062 625.773438 554.136719 C 627.648438 558.035156 631.097656 561.035156 635.367188 562.609375 C 639.789062 564.183594 695.554688 564.105469 700.203125 562.53125 C 704.398438 561.035156 708.070312 557.585938 710.019531 553.164062 C 711.894531 548.96875 712.792969 535.851562 711.292969 534.050781 C 710.546875 533.152344 708.597656 532.925781 702.375 532.925781 C 698.027344 532.925781 694.054688 533.226562 693.605469 533.527344 C 693.15625 533.828125 692.632812 536.300781 692.40625 539.148438 C 692.183594 543.121094 691.730469 544.542969 690.457031 545.894531 C 688.808594 547.542969 688.507812 547.542969 667.449219 547.542969 C 646.238281 547.542969 646.085938 547.542969 644.4375 545.820312 C 642.714844 544.171875 642.714844 543.871094 642.488281 523.183594 C 642.265625 499.347656 642.414062 498.375 647.4375 497.023438 C 651.035156 495.976562 683.789062 495.976562 687.460938 496.949219 C 690.984375 497.925781 691.957031 499.722656 692.480469 505.945312 L 692.929688 510.816406 L 711.667969 510.816406 L 711.894531 504.96875 C 712.34375 493.652344 709.046875 486.382812 701.851562 482.710938 L 698.253906 480.835938 L 669.320312 480.6875 C 653.433594 480.6875 639.789062 480.761719 638.964844 480.984375 Z M 638.964844 480.984375 " fill-opacity="1" fill-rule="nonzero"/><path fill="#000000" d="M 210.765625 522.210938 L 210.988281 563.28125 L 219.535156 563.507812 C 225.90625 563.65625 228.304688 563.433594 228.753906 562.757812 C 229.054688 562.234375 229.351562 549.191406 229.351562 533.828125 C 229.351562 517.863281 229.652344 505.945312 230.027344 506.09375 C 230.402344 506.167969 240.894531 518.984375 253.339844 534.425781 C 265.78125 549.867188 276.347656 562.757812 276.871094 563.058594 C 277.324219 563.359375 282.34375 563.65625 287.964844 563.65625 C 298.007812 563.65625 298.308594 563.582031 298.683594 561.933594 C 298.910156 561.035156 298.984375 542.597656 298.910156 520.933594 L 298.683594 481.585938 L 289.539062 481.359375 L 280.320312 481.136719 L 280.320312 509.765625 C 280.320312 531.726562 280.097656 538.25 279.421875 538.023438 C 278.898438 537.800781 268.402344 525.058594 255.960938 509.617188 L 233.476562 481.585938 L 222.007812 481.359375 L 210.617188 481.136719 Z M 210.765625 522.210938 " fill-opacity="1" fill-rule="nonzero"/><path fill="#000000" d="M 423.480469 482.632812 C 423.480469 484.285156 459.832031 560.433594 461.554688 562.308594 C 462.527344 563.433594 464.027344 563.65625 471.824219 563.65625 C 479.617188 563.65625 481.117188 563.433594 482.089844 562.308594 C 483.890625 560.359375 520.167969 484.433594 520.167969 482.710938 C 520.167969 481.285156 519.640625 481.210938 510.875 481.210938 C 504.351562 481.210938 501.355469 481.511719 500.828125 482.109375 C 500.453125 482.632812 494.984375 494.175781 488.6875 507.816406 C 482.390625 521.382812 476.019531 535.101562 474.597656 538.171875 L 471.972656 543.71875 L 470.324219 540.421875 C 469.351562 538.546875 462.980469 524.90625 456.082031 510.066406 C 449.1875 495.226562 443.191406 482.632812 442.742188 482.109375 C 442.292969 481.511719 439.292969 481.210938 432.773438 481.210938 C 424.152344 481.210938 423.480469 481.285156 423.480469 482.632812 Z M 423.480469 482.632812 " fill-opacity="1" fill-rule="nonzero"/><path fill="#000000" d="M 555.84375 482.859375 C 555.246094 483.832031 546.402344 501.898438 536.28125 523.035156 C 520.917969 554.738281 517.917969 561.632812 518.667969 562.53125 C 519.417969 563.433594 521.441406 563.65625 527.664062 563.65625 C 537.105469 563.65625 536.582031 564.03125 541.003906 554.289062 L 544.078125 547.542969 L 588.523438 547.542969 L 591.671875 554.363281 C 593.320312 558.109375 595.195312 561.785156 595.792969 562.457031 C 597.21875 564.105469 613.707031 564.257812 614.308594 562.609375 C 614.683594 561.707031 592.195312 513.738281 578.929688 486.980469 L 576.082031 481.210938 L 566.488281 481.210938 C 557.417969 481.210938 556.894531 481.285156 555.84375 482.859375 Z M 574.433594 516.210938 L 581.476562 531.429688 L 550.972656 531.429688 L 556.667969 519.585938 C 559.742188 513.140625 563.113281 506.019531 564.089844 503.769531 C 565.214844 501.222656 566.1875 499.949219 566.636719 500.398438 C 567.011719 500.773438 570.535156 507.894531 574.433594 516.210938 Z M 574.433594 516.210938 " fill-opacity="1" fill-rule="nonzero"/><path fill="#000000" d="M 733.179688 522.210938 L 733.40625 563.28125 L 771.179688 563.507812 C 800.9375 563.65625 809.105469 563.507812 809.632812 562.757812 C 810.304688 561.632812 810.457031 550.839844 809.78125 549.117188 C 809.40625 548.066406 806.109375 547.917969 780.550781 547.917969 L 751.769531 547.917969 L 751.769531 529.179688 L 795.316406 529.179688 L 795.089844 521.835938 L 794.867188 514.5625 L 773.355469 514.339844 L 751.769531 514.1875 L 751.769531 496.199219 L 780.101562 496.050781 L 808.359375 495.824219 L 808.582031 488.480469 L 808.808594 481.210938 L 733.03125 481.210938 Z M 733.179688 522.210938 " fill-opacity="1" fill-rule="nonzero"/><path fill="#000000" d="M 827.246094 481.734375 C 826.945312 481.960938 826.722656 500.097656 826.722656 522.058594 C 826.722656 552.039062 826.945312 562.082031 827.621094 562.757812 C 828.894531 564.03125 897.25 564.03125 898.523438 562.757812 C 899.574219 561.707031 899.800781 549.640625 898.824219 548.140625 C 898.375 547.394531 891.855469 547.167969 871.992188 547.019531 L 845.832031 546.792969 L 845.609375 513.964844 L 845.460938 481.210938 L 836.613281 481.210938 C 831.742188 481.210938 827.46875 481.433594 827.246094 481.734375 Z M 827.246094 481.734375 " fill-opacity="1" fill-rule="nonzero"/><path fill="#000000" d="M 907.21875 482.183594 C 906.996094 482.785156 906.917969 486.082031 907.070312 489.53125 L 907.292969 495.824219 L 919.511719 496.050781 L 931.652344 496.199219 L 931.652344 547.917969 L 920.5625 547.917969 C 912.765625 547.917969 909.09375 548.21875 908.117188 548.890625 C 907.070312 549.640625 906.917969 550.839844 907.070312 556.535156 L 907.292969 563.28125 L 940.574219 563.507812 C 966.730469 563.65625 974 563.507812 974.527344 562.757812 C 974.828125 562.234375 975.125 559.011719 975.125 555.5625 C 975.125 549.640625 975.050781 549.339844 973.175781 548.667969 C 972.128906 548.21875 966.582031 547.917969 960.808594 547.917969 L 950.390625 547.917969 L 950.390625 496.199219 L 962.382812 496.199219 C 976.25 496.199219 975.351562 496.875 974.976562 487.207031 L 974.75 481.585938 L 941.171875 481.359375 C 913.664062 481.210938 907.59375 481.359375 907.21875 482.183594 Z M 907.21875 482.183594 " fill-opacity="1" fill-rule="nonzero"/><path fill="#000000" d="M 992.515625 522.210938 L 992.738281 563.28125 L 1010.726562 563.28125 L 1010.953125 546.941406 L 1011.101562 530.679688 L 1032.015625 530.679688 L 1042.582031 546.042969 C 1048.429688 554.511719 1053.675781 561.933594 1054.351562 562.53125 C 1055.25 563.507812 1057.199219 563.65625 1064.917969 563.507812 C 1073.238281 563.28125 1074.4375 563.132812 1074.664062 562.007812 C 1074.8125 561.257812 1069.191406 552.414062 1061.472656 541.246094 L 1047.980469 521.757812 L 1061.019531 502.871094 C 1068.214844 492.527344 1074.0625 483.382812 1074.0625 482.632812 C 1074.0625 481.285156 1073.3125 481.210938 1064.320312 481.210938 L 1054.574219 481.210938 L 1051.351562 485.558594 C 1049.628906 487.957031 1044.53125 495.375 1039.960938 502.046875 L 1031.714844 514.113281 L 1021.445312 514.1875 L 1011.101562 514.1875 L 1010.953125 497.847656 L 1010.726562 481.585938 L 1001.507812 481.359375 L 992.363281 481.136719 Z M 992.515625 522.210938 " fill-opacity="1" fill-rule="nonzero"/><g fill="#000000" fill-opacity="1"><g transform="translate(424.593545, 691.377274)"><g><path d="M 16.703125 -10.203125 L 30.34375 -10.203125 L 30.34375 0 L 4.390625 0 L 4.390625 -56.890625 L 30.34375 -56.890625 L 30.34375 -46.875 L 16.703125 -46.875 L 16.703125 -33.5 L 29.453125 -33.5 L 29.453125 -23.828125 L 16.703125 -23.828125 Z M 16.703125 -10.203125 "/></g></g></g><g fill="#000000" fill-opacity="1"><g transform="translate(457.656033, 691.377274)"><g><path d="M 16.703125 -22.34375 L 16.703125 0 L 4.390625 0 L 4.390625 -56.890625 L 30.078125 -56.890625 L 30.078125 -46.25 L 16.703125 -46.25 L 16.703125 -32.625 L 29.1875 -32.625 L 29.1875 -22.34375 Z M 16.703125 -22.34375 "/></g></g></g><g fill="#000000" fill-opacity="1"><g transform="translate(490.542655, 691.377274)"><g><path d="M 16.703125 -22.34375 L 16.703125 0 L 4.390625 0 L 4.390625 -56.890625 L 30.078125 -56.890625 L 30.078125 -46.25 L 16.703125 -46.25 L 16.703125 -32.625 L 29.1875 -32.625 L 29.1875 -22.34375 Z M 16.703125 -22.34375 "/></g></g></g><g fill="#000000" fill-opacity="1"><g transform="translate(523.429277, 691.377274)"><g><path d="M 16.703125 -56.890625 L 16.703125 0 L 4.390625 0 L 4.390625 -56.890625 Z M 16.703125 -56.890625 "/></g></g></g><g fill="#000000" fill-opacity="1"><g transform="translate(544.884731, 691.377274)"><g><path d="M 25.59375 -9.328125 L 25.59375 -18.109375 L 37.28125 -18.109375 L 37.28125 -10.734375 C 37.28125 -2.992188 33.644531 0.875 26.375 0.875 L 15.296875 0.875 C 8.023438 0.875 4.390625 -2.992188 4.390625 -10.734375 L 4.390625 -46.171875 C 4.390625 -53.910156 8.023438 -57.78125 15.296875 -57.78125 L 26.375 -57.78125 C 33.644531 -57.78125 37.28125 -53.910156 37.28125 -46.171875 L 37.28125 -40.796875 L 25.59375 -40.796875 L 25.59375 -47.65625 C 25.59375 -48.125 25.429688 -48.535156 25.109375 -48.890625 C 24.785156 -49.242188 24.390625 -49.421875 23.921875 -49.421875 L 18.375 -49.421875 C 17.90625 -49.421875 17.507812 -49.242188 17.1875 -48.890625 C 16.863281 -48.535156 16.703125 -48.125 16.703125 -47.65625 L 16.703125 -9.328125 C 16.703125 -8.859375 16.863281 -8.445312 17.1875 -8.09375 C 17.507812 -7.738281 17.90625 -7.5625 18.375 -7.5625 L 23.921875 -7.5625 C 24.390625 -7.5625 24.785156 -7.738281 25.109375 -8.09375 C 25.429688 -8.445312 25.59375 -8.859375 25.59375 -9.328125 Z M 25.59375 -9.328125 "/></g></g></g><g fill="#000000" fill-opacity="1"><g transform="translate(585.157669, 691.377274)"><g><path d="M 16.703125 -56.890625 L 16.703125 0 L 4.390625 0 L 4.390625 -56.890625 Z M 16.703125 -56.890625 "/></g></g></g><g fill="#000000" fill-opacity="1"><g transform="translate(606.613123, 691.377274)"><g><path d="M 16.703125 -10.203125 L 30.34375 -10.203125 L 30.34375 0 L 4.390625 0 L 4.390625 -56.890625 L 30.34375 -56.890625 L 30.34375 -46.875 L 16.703125 -46.875 L 16.703125 -33.5 L 29.453125 -33.5 L 29.453125 -23.828125 L 16.703125 -23.828125 Z M 16.703125 -10.203125 "/></g></g></g><g fill="#000000" fill-opacity="1"><g transform="translate(639.675611, 691.377274)"><g><path d="M 37.015625 0 L 24.703125 0 L 24.703125 -47.21875 C 24.703125 -47.6875 24.539062 -48.097656 24.21875 -48.453125 C 23.90625 -48.804688 23.515625 -48.984375 23.046875 -48.984375 L 18.296875 -48.984375 C 17.828125 -48.984375 17.429688 -48.804688 17.109375 -48.453125 C 16.785156 -48.097656 16.625 -47.6875 16.625 -47.21875 L 16.625 0 L 4.3125 0 L 4.3125 -46.171875 C 4.3125 -53.910156 7.945312 -57.78125 15.21875 -57.78125 L 26.125 -57.78125 C 33.382812 -57.78125 37.015625 -53.910156 37.015625 -46.171875 Z M 37.015625 0 "/></g></g></g><g fill="#000000" fill-opacity="1"><g transform="translate(680.564071, 691.377274)"><g><path d="M 25.59375 -9.328125 L 25.59375 -18.109375 L 37.28125 -18.109375 L 37.28125 -10.734375 C 37.28125 -2.992188 33.644531 0.875 26.375 0.875 L 15.296875 0.875 C 8.023438 0.875 4.390625 -2.992188 4.390625 -10.734375 L 4.390625 -46.171875 C 4.390625 -53.910156 8.023438 -57.78125 15.296875 -57.78125 L 26.375 -57.78125 C 33.644531 -57.78125 37.28125 -53.910156 37.28125 -46.171875 L 37.28125 -40.796875 L 25.59375 -40.796875 L 25.59375 -47.65625 C 25.59375 -48.125 25.429688 -48.535156 25.109375 -48.890625 C 24.785156 -49.242188 24.390625 -49.421875 23.921875 -49.421875 L 18.375 -49.421875 C 17.90625 -49.421875 17.507812 -49.242188 17.1875 -48.890625 C 16.863281 -48.535156 16.703125 -48.125 16.703125 -47.65625 L 16.703125 -9.328125 C 16.703125 -8.859375 16.863281 -8.445312 17.1875 -8.09375 C 17.507812 -7.738281 17.90625 -7.5625 18.375 -7.5625 L 23.921875 -7.5625 C 24.390625 -7.5625 24.785156 -7.738281 25.109375 -8.09375 C 25.429688 -8.445312 25.59375 -8.859375 25.59375 -9.328125 Z M 25.59375 -9.328125 "/></g></g></g><g fill="#000000" fill-opacity="1"><g transform="translate(720.837008, 691.377274)"><g><path d="M 37.375 -56.890625 L 25.15625 -20.75 L 25.15625 0 L 12.84375 0 L 12.84375 -20.75 L 0.609375 -56.890625 L 12.21875 -56.890625 L 19 -33.15625 L 25.765625 -56.890625 Z M 37.375 -56.890625 "/></g></g></g><g fill="#000000" fill-opacity="1"><g transform="translate(759.087498, 691.377274)"><g/></g></g><g fill="#000000" fill-opacity="1"><g transform="translate(776.849801, 691.377274)"><g><path d="M 27 -57.78125 C 34.269531 -57.78125 37.90625 -53.910156 37.90625 -46.171875 L 37.90625 0 L 25.59375 0 L 25.59375 -19.078125 L 16.703125 -19.078125 L 16.703125 0 L 4.390625 0 L 4.390625 -46.171875 C 4.390625 -53.910156 8.023438 -57.78125 15.296875 -57.78125 Z M 16.703125 -28.578125 L 25.59375 -28.578125 L 25.59375 -47.65625 C 25.59375 -48.125 25.429688 -48.535156 25.109375 -48.890625 C 24.785156 -49.242188 24.390625 -49.421875 23.921875 -49.421875 L 18.375 -49.421875 C 17.90625 -49.421875 17.507812 -49.242188 17.1875 -48.890625 C 16.863281 -48.535156 16.703125 -48.125 16.703125 -47.65625 Z M 16.703125 -28.578125 "/></g></g></g><g fill="#000000" fill-opacity="1"><g transform="translate(819.496889, 691.377274)"><g><path d="M 25.59375 -9.328125 L 25.59375 -18.109375 L 37.28125 -18.109375 L 37.28125 -10.734375 C 37.28125 -2.992188 33.644531 0.875 26.375 0.875 L 15.296875 0.875 C 8.023438 0.875 4.390625 -2.992188 4.390625 -10.734375 L 4.390625 -46.171875 C 4.390625 -53.910156 8.023438 -57.78125 15.296875 -57.78125 L 26.375 -57.78125 C 33.644531 -57.78125 37.28125 -53.910156 37.28125 -46.171875 L 37.28125 -40.796875 L 25.59375 -40.796875 L 25.59375 -47.65625 C 25.59375 -48.125 25.429688 -48.535156 25.109375 -48.890625 C 24.785156 -49.242188 24.390625 -49.421875 23.921875 -49.421875 L 18.375 -49.421875 C 17.90625 -49.421875 17.507812 -49.242188 17.1875 -48.890625 C 16.863281 -48.535156 16.703125 -48.125 16.703125 -47.65625 L 16.703125 -9.328125 C 16.703125 -8.859375 16.863281 -8.445312 17.1875 -8.09375 C 17.507812 -7.738281 17.90625 -7.5625 18.375 -7.5625 L 23.921875 -7.5625 C 24.390625 -7.5625 24.785156 -7.738281 25.109375 -8.09375 C 25.429688 -8.445312 25.59375 -8.859375 25.59375 -9.328125 Z M 25.59375 -9.328125 "/></g></g></g><g fill="#000000" fill-opacity="1"><g transform="translate(859.769827, 691.377274)"><g><path d="M 27 -57.78125 C 34.269531 -57.78125 37.90625 -53.910156 37.90625 -46.171875 L 37.90625 0 L 25.59375 0 L 25.59375 -19.078125 L 16.703125 -19.078125 L 16.703125 0 L 4.390625 0 L 4.390625 -46.171875 C 4.390625 -53.910156 8.023438 -57.78125 15.296875 -57.78125 Z M 16.703125 -28.578125 L 25.59375 -28.578125 L 25.59375 -47.65625 C 25.59375 -48.125 25.429688 -48.535156 25.109375 -48.890625 C 24.785156 -49.242188 24.390625 -49.421875 23.921875 -49.421875 L 18.375 -49.421875 C 17.90625 -49.421875 17.507812 -49.242188 17.1875 -48.890625 C 16.863281 -48.535156 16.703125 -48.125 16.703125 -47.65625 Z M 16.703125 -28.578125 "/></g></g></g><g fill="#000000" fill-opacity="1"><g transform="translate(902.416915, 691.377274)"><g><path d="M 27 -56.890625 C 34.269531 -56.890625 37.90625 -53.019531 37.90625 -45.28125 L 37.90625 -11.609375 C 37.90625 -3.867188 34.269531 0 27 0 L 4.390625 0 L 4.390625 -56.890625 Z M 25.59375 -10.203125 L 25.59375 -46.78125 C 25.59375 -47.25 25.429688 -47.660156 25.109375 -48.015625 C 24.785156 -48.367188 24.390625 -48.546875 23.921875 -48.546875 L 16.703125 -48.546875 L 16.703125 -8.4375 L 23.921875 -8.4375 C 24.390625 -8.4375 24.785156 -8.613281 25.109375 -8.96875 C 25.429688 -9.320312 25.59375 -9.734375 25.59375 -10.203125 Z M 25.59375 -10.203125 "/></g></g></g><g fill="#000000" fill-opacity="1"><g transform="translate(945.064032, 691.377274)"><g><path d="M 16.703125 -10.203125 L 30.34375 -10.203125 L 30.34375 0 L 4.390625 0 L 4.390625 -56.890625 L 30.34375 -56.890625 L 30.34375 -46.875 L 16.703125 -46.875 L 16.703125 -33.5 L 29.453125 -33.5 L 29.453125 -23.828125 L 16.703125 -23.828125 Z M 16.703125 -10.203125 "/></g></g></g><g fill="#000000" fill-opacity="1"><g transform="translate(978.126492, 691.377274)"><g><path d="M 16.625 0 L 4.3125 0 L 4.3125 -46.171875 C 4.3125 -53.910156 7.945312 -57.78125 15.21875 -57.78125 L 21.71875 -57.78125 C 26 -57.78125 29.046875 -56.367188 30.859375 -53.546875 C 32.566406 -56.367188 35.617188 -57.78125 40.015625 -57.78125 L 46.515625 -57.78125 C 53.785156 -57.78125 57.421875 -53.910156 57.421875 -46.171875 L 57.421875 0 L 45.109375 0 L 45.109375 -47.21875 C 45.109375 -47.6875 44.945312 -48.097656 44.625 -48.453125 C 44.300781 -48.804688 43.90625 -48.984375 43.4375 -48.984375 L 38.6875 -48.984375 C 38.21875 -48.984375 37.820312 -48.804688 37.5 -48.453125 C 37.175781 -48.097656 37.015625 -47.6875 37.015625 -47.21875 L 37.015625 0 L 24.703125 0 L 24.703125 -47.21875 C 24.703125 -47.6875 24.539062 -48.097656 24.21875 -48.453125 C 23.90625 -48.804688 23.515625 -48.984375 23.046875 -48.984375 L 18.296875 -48.984375 C 17.828125 -48.984375 17.429688 -48.804688 17.109375 -48.453125 C 16.785156 -48.097656 16.625 -47.6875 16.625 -47.21875 Z M 16.625 0 "/></g></g><g transform="translate(1039.591103, 691.377274)"><g><path d="M 37.375 -56.890625 L 25.15625 -20.75 L 25.15625 0 L 12.84375 0 L 12.84375 -20.75 L 0.609375 -56.890625 L 12.21875 -56.890625 L 19 -33.15625 L 25.765625 -56.890625 Z M 37.375 -56.890625 "/></g></g></g></svg>