<svg width="421" height="249" viewBox="0 0 421 249" fill="none" xmlns="http://www.w3.org/2000/svg">
<rect width="421" height="249" fill="white"/>
<path d="M21.5449 212.844H22.2363V211.865C23.7188 211.754 24.8848 210.939 24.8848 209.51V209.498C24.8848 208.256 24.041 207.623 22.5 207.266L22.2363 207.201V204.746C22.9805 204.852 23.4961 205.297 23.5781 206.023V206.035L24.791 206.029V206.023C24.7383 204.705 23.6895 203.803 22.2363 203.68V202.695H21.5449V203.68C20.0742 203.797 19.0312 204.664 19.0312 205.971V205.982C19.0312 207.166 19.834 207.834 21.3164 208.18L21.5449 208.238V210.799C20.6016 210.699 20.1621 210.189 20.0625 209.51V209.498L18.8438 209.504V209.51C18.8906 210.904 20.0625 211.748 21.5449 211.865V212.844ZM20.2676 205.889V205.877C20.2676 205.344 20.707 204.857 21.5449 204.746V207.037C20.6191 206.803 20.2676 206.41 20.2676 205.889ZM23.6426 209.615V209.627C23.6426 210.248 23.2266 210.723 22.2363 210.805V208.396C23.3145 208.654 23.6426 209.012 23.6426 209.615ZM30.6426 212.205C32.5879 212.205 33.7656 210.5 33.7656 207.775V207.764C33.7656 205.039 32.5879 203.34 30.6426 203.34C28.6914 203.34 27.5195 205.039 27.5195 207.764V207.775C27.5195 210.5 28.6914 212.205 30.6426 212.205ZM30.6426 211.115C29.5059 211.115 28.8438 209.844 28.8438 207.775V207.764C28.8438 205.695 29.5059 204.436 30.6426 204.436C31.7734 204.436 32.4414 205.695 32.4414 207.764V207.775C32.4414 209.844 31.7734 211.115 30.6426 211.115Z" fill="#77838F"/>
<path d="M21.5449 175.844H22.2363V174.865C23.7188 174.754 24.8848 173.939 24.8848 172.51V172.498C24.8848 171.256 24.041 170.623 22.5 170.266L22.2363 170.201V167.746C22.9805 167.852 23.4961 168.297 23.5781 169.023V169.035L24.791 169.029V169.023C24.7383 167.705 23.6895 166.803 22.2363 166.68V165.695H21.5449V166.68C20.0742 166.797 19.0312 167.664 19.0312 168.971V168.982C19.0312 170.166 19.834 170.834 21.3164 171.18L21.5449 171.238V173.799C20.6016 173.699 20.1621 173.189 20.0625 172.51V172.498L18.8438 172.504V172.51C18.8906 173.904 20.0625 174.748 21.5449 174.865V175.844ZM20.2676 168.889V168.877C20.2676 168.344 20.707 167.857 21.5449 167.746V170.037C20.6191 169.803 20.2676 169.41 20.2676 168.889ZM23.6426 172.615V172.627C23.6426 173.248 23.2266 173.723 22.2363 173.805V171.396C23.3145 171.654 23.6426 172.012 23.6426 172.615ZM29.7285 175H31.041V166.545H29.7285L27.502 168.127V169.416L29.6289 167.898H29.7285V175ZM37.4199 175.205C39.3652 175.205 40.543 173.5 40.543 170.775V170.764C40.543 168.039 39.3652 166.34 37.4199 166.34C35.4688 166.34 34.2969 168.039 34.2969 170.764V170.775C34.2969 173.5 35.4688 175.205 37.4199 175.205ZM37.4199 174.115C36.2832 174.115 35.6211 172.844 35.6211 170.775V170.764C35.6211 168.695 36.2832 167.436 37.4199 167.436C38.5508 167.436 39.2188 168.695 39.2188 170.764V170.775C39.2188 172.844 38.5508 174.115 37.4199 174.115ZM46.2129 175.205C48.1582 175.205 49.3359 173.5 49.3359 170.775V170.764C49.3359 168.039 48.1582 166.34 46.2129 166.34C44.2617 166.34 43.0898 168.039 43.0898 170.764V170.775C43.0898 173.5 44.2617 175.205 46.2129 175.205ZM46.2129 174.115C45.0762 174.115 44.4141 172.844 44.4141 170.775V170.764C44.4141 168.695 45.0762 167.436 46.2129 167.436C47.3438 167.436 48.0117 168.695 48.0117 170.764V170.775C48.0117 172.844 47.3438 174.115 46.2129 174.115Z" fill="#77838F"/>
<path d="M21.5449 138.844H22.2363V137.865C23.7188 137.754 24.8848 136.939 24.8848 135.51V135.498C24.8848 134.256 24.041 133.623 22.5 133.266L22.2363 133.201V130.746C22.9805 130.852 23.4961 131.297 23.5781 132.023V132.035L24.791 132.029V132.023C24.7383 130.705 23.6895 129.803 22.2363 129.68V128.695H21.5449V129.68C20.0742 129.797 19.0312 130.664 19.0312 131.971V131.982C19.0312 133.166 19.834 133.834 21.3164 134.18L21.5449 134.238V136.799C20.6016 136.699 20.1621 136.189 20.0625 135.51V135.498L18.8438 135.504V135.51C18.8906 136.904 20.0625 137.748 21.5449 137.865V138.844ZM20.2676 131.889V131.877C20.2676 131.344 20.707 130.857 21.5449 130.746V133.037C20.6191 132.803 20.2676 132.41 20.2676 131.889ZM23.6426 135.615V135.627C23.6426 136.248 23.2266 136.723 22.2363 136.805V134.396C23.3145 134.654 23.6426 135.012 23.6426 135.615ZM27.6602 138H33.3555V136.881H29.4473V136.764L31.2402 134.977C32.7754 133.453 33.2207 132.715 33.2207 131.754V131.736C33.2207 130.342 32.0605 129.34 30.4844 129.34C28.7852 129.34 27.5898 130.43 27.584 131.977L27.5957 131.988H28.8262L28.832 131.971C28.832 131.045 29.4648 130.424 30.4141 130.424C31.3398 130.424 31.9082 131.033 31.9082 131.859V131.877C31.9082 132.562 31.5859 132.996 30.4668 134.162L27.6602 137.109V138ZM39.0605 138.205C41.0059 138.205 42.1836 136.5 42.1836 133.775V133.764C42.1836 131.039 41.0059 129.34 39.0605 129.34C37.1094 129.34 35.9375 131.039 35.9375 133.764V133.775C35.9375 136.5 37.1094 138.205 39.0605 138.205ZM39.0605 137.115C37.9238 137.115 37.2617 135.844 37.2617 133.775V133.764C37.2617 131.695 37.9238 130.436 39.0605 130.436C40.1914 130.436 40.8594 131.695 40.8594 133.764V133.775C40.8594 135.844 40.1914 137.115 39.0605 137.115ZM47.8535 138.205C49.7988 138.205 50.9766 136.5 50.9766 133.775V133.764C50.9766 131.039 49.7988 129.34 47.8535 129.34C45.9023 129.34 44.7305 131.039 44.7305 133.764V133.775C44.7305 136.5 45.9023 138.205 47.8535 138.205ZM47.8535 137.115C46.7168 137.115 46.0547 135.844 46.0547 133.775V133.764C46.0547 131.695 46.7168 130.436 47.8535 130.436C48.9844 130.436 49.6523 131.695 49.6523 133.764V133.775C49.6523 135.844 48.9844 137.115 47.8535 137.115Z" fill="#77838F"/>
<path d="M21.5449 101.844H22.2363V100.865C23.7188 100.754 24.8848 99.9395 24.8848 98.5098V98.498C24.8848 97.2559 24.041 96.623 22.5 96.2656L22.2363 96.2012V93.7461C22.9805 93.8516 23.4961 94.2969 23.5781 95.0234V95.0352L24.791 95.0293V95.0234C24.7383 93.7051 23.6895 92.8027 22.2363 92.6797V91.6953H21.5449V92.6797C20.0742 92.7969 19.0312 93.6641 19.0312 94.9707V94.9824C19.0312 96.166 19.834 96.834 21.3164 97.1797L21.5449 97.2383V99.7988C20.6016 99.6992 20.1621 99.1895 20.0625 98.5098V98.498L18.8438 98.5039V98.5098C18.8906 99.9043 20.0625 100.748 21.5449 100.865V101.844ZM20.2676 94.8887V94.877C20.2676 94.3438 20.707 93.8574 21.5449 93.7461V96.0371C20.6191 95.8027 20.2676 95.4102 20.2676 94.8887ZM23.6426 98.6152V98.627C23.6426 99.248 23.2266 99.7227 22.2363 99.8047V97.3965C23.3145 97.6543 23.6426 98.0117 23.6426 98.6152ZM30.6367 101.158C32.4297 101.158 33.7012 100.115 33.7012 98.6621V98.6504C33.7012 97.4668 32.8691 96.7168 31.627 96.6055V96.5762C32.6582 96.3594 33.4082 95.6562 33.4082 94.6074V94.5957C33.4082 93.2891 32.3066 92.3867 30.625 92.3867C28.9727 92.3867 27.8477 93.3301 27.7188 94.7539L27.7129 94.8184H28.9434L28.9492 94.7598C29.0312 93.9629 29.6875 93.4648 30.625 93.4648C31.5801 93.4648 32.1309 93.9453 32.1309 94.7656V94.7773C32.1309 95.5625 31.4746 96.1309 30.5078 96.1309H29.5176V97.1504H30.5488C31.6738 97.1504 32.3652 97.6836 32.3652 98.6387V98.6504C32.3652 99.4824 31.668 100.062 30.6367 100.062C29.5879 100.062 28.8789 99.5234 28.7969 98.7559L28.791 98.6973H27.5371L27.543 98.7676C27.6543 100.168 28.832 101.158 30.6367 101.158ZM39.3301 101.205C41.2754 101.205 42.4531 99.5 42.4531 96.7754V96.7637C42.4531 94.0391 41.2754 92.3398 39.3301 92.3398C37.3789 92.3398 36.207 94.0391 36.207 96.7637V96.7754C36.207 99.5 37.3789 101.205 39.3301 101.205ZM39.3301 100.115C38.1934 100.115 37.5312 98.8438 37.5312 96.7754V96.7637C37.5312 94.6953 38.1934 93.4355 39.3301 93.4355C40.4609 93.4355 41.1289 94.6953 41.1289 96.7637V96.7754C41.1289 98.8438 40.4609 100.115 39.3301 100.115ZM48.123 101.205C50.0684 101.205 51.2461 99.5 51.2461 96.7754V96.7637C51.2461 94.0391 50.0684 92.3398 48.123 92.3398C46.1719 92.3398 45 94.0391 45 96.7637V96.7754C45 99.5 46.1719 101.205 48.123 101.205ZM48.123 100.115C46.9863 100.115 46.3242 98.8438 46.3242 96.7754V96.7637C46.3242 94.6953 46.9863 93.4355 48.123 93.4355C49.2539 93.4355 49.9219 94.6953 49.9219 96.7637V96.7754C49.9219 98.8438 49.2539 100.115 48.123 100.115Z" fill="#77838F"/>
<path d="M21.5449 64.8438H22.2363V63.8652C23.7188 63.7539 24.8848 62.9395 24.8848 61.5098V61.498C24.8848 60.2559 24.041 59.623 22.5 59.2656L22.2363 59.2012V56.7461C22.9805 56.8516 23.4961 57.2969 23.5781 58.0234V58.0352L24.791 58.0293V58.0234C24.7383 56.7051 23.6895 55.8027 22.2363 55.6797V54.6953H21.5449V55.6797C20.0742 55.7969 19.0312 56.6641 19.0312 57.9707V57.9824C19.0312 59.166 19.834 59.834 21.3164 60.1797L21.5449 60.2383V62.7988C20.6016 62.6992 20.1621 62.1895 20.0625 61.5098V61.498L18.8438 61.5039V61.5098C18.8906 62.9043 20.0625 63.748 21.5449 63.8652V64.8438ZM20.2676 57.8887V57.877C20.2676 57.3438 20.707 56.8574 21.5449 56.7461V59.0371C20.6191 58.8027 20.2676 58.4102 20.2676 57.8887ZM23.6426 61.6152V61.627C23.6426 62.248 23.2266 62.7227 22.2363 62.8047V60.3965C23.3145 60.6543 23.6426 61.0117 23.6426 61.6152ZM31.5391 64H32.8047V62.3184H33.9707V61.2051H32.8047V55.5449H30.9355C29.7695 57.2969 28.5273 59.2949 27.4141 61.2051V62.3184H31.5391V64ZM28.6738 61.2285V61.1465C29.541 59.6641 30.5723 58.0176 31.4805 56.6523H31.5566V61.2285H28.6738ZM39.5527 64.2051C41.498 64.2051 42.6758 62.5 42.6758 59.7754V59.7637C42.6758 57.0391 41.498 55.3398 39.5527 55.3398C37.6016 55.3398 36.4297 57.0391 36.4297 59.7637V59.7754C36.4297 62.5 37.6016 64.2051 39.5527 64.2051ZM39.5527 63.1152C38.416 63.1152 37.7539 61.8438 37.7539 59.7754V59.7637C37.7539 57.6953 38.416 56.4355 39.5527 56.4355C40.6836 56.4355 41.3516 57.6953 41.3516 59.7637V59.7754C41.3516 61.8438 40.6836 63.1152 39.5527 63.1152ZM48.3457 64.2051C50.291 64.2051 51.4688 62.5 51.4688 59.7754V59.7637C51.4688 57.0391 50.291 55.3398 48.3457 55.3398C46.3945 55.3398 45.2227 57.0391 45.2227 59.7637V59.7754C45.2227 62.5 46.3945 64.2051 48.3457 64.2051ZM48.3457 63.1152C47.209 63.1152 46.5469 61.8438 46.5469 59.7754V59.7637C46.5469 57.6953 47.209 56.4355 48.3457 56.4355C49.4766 56.4355 50.1445 57.6953 50.1445 59.7637V59.7754C50.1445 61.8438 49.4766 63.1152 48.3457 63.1152Z" fill="#77838F"/>
<path d="M21.5449 27.8438H22.2363V26.8652C23.7188 26.7539 24.8848 25.9395 24.8848 24.5098V24.498C24.8848 23.2559 24.041 22.623 22.5 22.2656L22.2363 22.2012V19.7461C22.9805 19.8516 23.4961 20.2969 23.5781 21.0234V21.0352L24.791 21.0293V21.0234C24.7383 19.7051 23.6895 18.8027 22.2363 18.6797V17.6953H21.5449V18.6797C20.0742 18.7969 19.0312 19.6641 19.0312 20.9707V20.9824C19.0312 22.166 19.834 22.834 21.3164 23.1797L21.5449 23.2383V25.7988C20.6016 25.6992 20.1621 25.1895 20.0625 24.5098V24.498L18.8438 24.5039V24.5098C18.8906 25.9043 20.0625 26.748 21.5449 26.8652V27.8438ZM20.2676 20.8887V20.877C20.2676 20.3438 20.707 19.8574 21.5449 19.7461V22.0371C20.6191 21.8027 20.2676 21.4102 20.2676 20.8887ZM23.6426 24.6152V24.627C23.6426 25.248 23.2266 25.7227 22.2363 25.8047V23.3965C23.3145 23.6543 23.6426 24.0117 23.6426 24.6152ZM30.5898 27.2051C32.3711 27.2051 33.625 26.0098 33.625 24.2754V24.2637C33.625 22.6406 32.4883 21.457 30.9004 21.457C30.1211 21.457 29.459 21.7852 29.1016 22.3535H29.002L29.2598 19.6582H33.1445V18.5449H28.2285L27.8066 23.4551H28.9375C29.0371 23.2617 29.1719 23.0977 29.3242 22.9629C29.6582 22.6582 30.0977 22.5059 30.6133 22.5059C31.6328 22.5059 32.3711 23.2441 32.3711 24.2871V24.2988C32.3711 25.3594 31.6445 26.1035 30.6016 26.1035C29.6758 26.1035 29.002 25.5117 28.8906 24.7676L28.8848 24.7207H27.6543L27.6602 24.7969C27.7773 26.168 28.9258 27.2051 30.5898 27.2051ZM39.2598 27.2051C41.2051 27.2051 42.3828 25.5 42.3828 22.7754V22.7637C42.3828 20.0391 41.2051 18.3398 39.2598 18.3398C37.3086 18.3398 36.1367 20.0391 36.1367 22.7637V22.7754C36.1367 25.5 37.3086 27.2051 39.2598 27.2051ZM39.2598 26.1152C38.123 26.1152 37.4609 24.8438 37.4609 22.7754V22.7637C37.4609 20.6953 38.123 19.4355 39.2598 19.4355C40.3906 19.4355 41.0586 20.6953 41.0586 22.7637V22.7754C41.0586 24.8438 40.3906 26.1152 39.2598 26.1152ZM48.0527 27.2051C49.998 27.2051 51.1758 25.5 51.1758 22.7754V22.7637C51.1758 20.0391 49.998 18.3398 48.0527 18.3398C46.1016 18.3398 44.9297 20.0391 44.9297 22.7637V22.7754C44.9297 25.5 46.1016 27.2051 48.0527 27.2051ZM48.0527 26.1152C46.916 26.1152 46.2539 24.8438 46.2539 22.7754V22.7637C46.2539 20.6953 46.916 19.4355 48.0527 19.4355C49.1836 19.4355 49.8516 20.6953 49.8516 22.7637V22.7754C49.8516 24.8438 49.1836 26.1152 48.0527 26.1152Z" fill="#77838F"/>
<path d="M67 24.5H404" stroke="#EEEEEE"/>
<path d="M67 61.5H404" stroke="#EEEEEE"/>
<path d="M67 98.5H404" stroke="#EEEEEE"/>
<path d="M67 135.5H404" stroke="#EEEEEE"/>
<path d="M67 172.5H404" stroke="#EEEEEE"/>
<path d="M67 209.5H404" stroke="#EEEEEE"/>
<g clip-path="url(#clip0_0_214)">
<path d="M77.4453 231H78.957V222.545H77.4512L75.2422 224.098V225.521L77.3457 224.033H77.4453V231ZM85.4648 231.17C87.4102 231.17 88.7637 230.162 88.7637 228.715V228.703C88.7637 227.619 87.9785 226.781 86.8477 226.553V226.518C87.8145 226.26 88.459 225.551 88.459 224.643V224.631C88.459 223.33 87.2168 222.375 85.4648 222.375C83.7129 222.375 82.4707 223.33 82.4707 224.631V224.643C82.4707 225.551 83.1152 226.26 84.082 226.518V226.553C82.957 226.781 82.166 227.619 82.166 228.703V228.715C82.166 230.162 83.5195 231.17 85.4648 231.17ZM85.4648 226.037C84.5801 226.037 83.9648 225.521 83.9648 224.783V224.771C83.9648 224.033 84.5801 223.518 85.4648 223.518C86.3496 223.518 86.9648 224.033 86.9648 224.771V224.783C86.9648 225.521 86.3496 226.037 85.4648 226.037ZM85.4648 230.016C84.4512 230.016 83.7305 229.43 83.7305 228.615V228.604C83.7305 227.783 84.4395 227.191 85.4648 227.191C86.4844 227.191 87.1992 227.783 87.1992 228.604V228.615C87.1992 229.43 86.4785 230.016 85.4648 230.016Z" fill="#2E2A2A"/>
<path d="M67 142C67 137.582 70.5817 134 75 134H89C93.4183 134 97 137.582 97 142V210H67V142Z" fill="#E6EEF5"/>
</g>
<g clip-path="url(#clip1_0_214)">
<path d="M136.621 231H142.492V229.746H138.666V229.623L140.359 227.982C141.9 226.5 142.363 225.738 142.363 224.777V224.76C142.363 223.336 141.18 222.334 139.533 222.334C137.77 222.334 136.539 223.436 136.539 225.012L136.545 225.029L137.951 225.035L137.957 225.012C137.957 224.139 138.561 223.547 139.457 223.547C140.336 223.547 140.869 224.109 140.869 224.889V224.906C140.869 225.557 140.547 225.984 139.398 227.145L136.621 229.98V231ZM148.268 231.211C150.277 231.211 151.496 229.506 151.496 226.775V226.764C151.496 224.033 150.277 222.334 148.268 222.334C146.258 222.334 145.051 224.033 145.051 226.764V226.775C145.051 229.506 146.258 231.211 148.268 231.211ZM148.268 229.986C147.189 229.986 146.574 228.779 146.574 226.775V226.764C146.574 224.76 147.189 223.564 148.268 223.564C149.346 223.564 149.973 224.76 149.973 226.764V226.775C149.973 228.779 149.346 229.986 148.268 229.986Z" fill="#2E2A2A"/>
<path d="M128 107C128 102.582 131.582 99 136 99H150C154.418 99 158 102.582 158 107V210H128V107Z" fill="#E6EEF5"/>
</g>
<g clip-path="url(#clip2_0_214)">
<path d="M199.146 231H205.018V229.746H201.191V229.623L202.885 227.982C204.426 226.5 204.889 225.738 204.889 224.777V224.76C204.889 223.336 203.705 222.334 202.059 222.334C200.295 222.334 199.064 223.436 199.064 225.012L199.07 225.029L200.477 225.035L200.482 225.012C200.482 224.139 201.086 223.547 201.982 223.547C202.861 223.547 203.395 224.109 203.395 224.889V224.906C203.395 225.557 203.072 225.984 201.924 227.145L199.146 229.98V231ZM209.762 231H211.273V222.545H209.768L207.559 224.098V225.521L209.662 224.033H209.762V231Z" fill="#2E2A2A"/>
<path d="M190 70C190 65.5817 193.582 62 198 62H212C216.418 62 220 65.5817 220 70V210H190V70Z" fill="#3354F4"/>
</g>
<g clip-path="url(#clip3_0_214)">
<path d="M259.338 231H265.209V229.746H261.383V229.623L263.076 227.982C264.617 226.5 265.08 225.738 265.08 224.777V224.76C265.08 223.336 263.896 222.334 262.25 222.334C260.486 222.334 259.256 223.436 259.256 225.012L259.262 225.029L260.668 225.035L260.674 225.012C260.674 224.139 261.277 223.547 262.174 223.547C263.053 223.547 263.586 224.109 263.586 224.889V224.906C263.586 225.557 263.264 225.984 262.115 227.145L259.338 229.98V231ZM267.885 231H273.756V229.746H269.93V229.623L271.623 227.982C273.164 226.5 273.627 225.738 273.627 224.777V224.76C273.627 223.336 272.443 222.334 270.797 222.334C269.033 222.334 267.803 223.436 267.803 225.012L267.809 225.029L269.215 225.035L269.221 225.012C269.221 224.139 269.824 223.547 270.721 223.547C271.6 223.547 272.133 224.109 272.133 224.889V224.906C272.133 225.557 271.811 225.984 270.662 227.145L267.885 229.98V231Z" fill="#2E2A2A"/>
<path d="M251 106C251 101.582 254.582 98 259 98H273C277.418 98 281 101.582 281 106V210H251V106Z" fill="#E6EEF5"/>
</g>
<g clip-path="url(#clip4_0_214)">
<path d="M321.686 231H327.557V229.746H323.73V229.623L325.424 227.982C326.965 226.5 327.428 225.738 327.428 224.777V224.76C327.428 223.336 326.244 222.334 324.598 222.334C322.834 222.334 321.604 223.436 321.604 225.012L321.609 225.029L323.016 225.035L323.021 225.012C323.021 224.139 323.625 223.547 324.521 223.547C325.4 223.547 325.934 224.109 325.934 224.889V224.906C325.934 225.557 325.611 225.984 324.463 227.145L321.686 229.98V231ZM333.291 231.17C335.166 231.17 336.449 230.133 336.449 228.645V228.633C336.449 227.461 335.623 226.723 334.381 226.605V226.576C335.395 226.365 336.15 225.668 336.15 224.619V224.607C336.15 223.283 335.02 222.375 333.279 222.375C331.574 222.375 330.42 223.336 330.291 224.801L330.285 224.865H331.691L331.697 224.807C331.773 224.051 332.389 223.576 333.279 223.576C334.182 223.576 334.703 224.033 334.703 224.807V224.818C334.703 225.557 334.082 226.084 333.15 226.084H332.184V227.209H333.18C334.264 227.209 334.92 227.701 334.92 228.592V228.604C334.92 229.389 334.27 229.934 333.291 229.934C332.301 229.934 331.639 229.424 331.557 228.709L331.551 228.645H330.109L330.115 228.715C330.227 230.162 331.439 231.17 333.291 231.17Z" fill="#2E2A2A"/>
<path d="M313 142C313 137.582 316.582 134 321 134H335C339.418 134 343 137.582 343 142V210H313V142Z" fill="#E6EEF5"/>
</g>
<g clip-path="url(#clip5_0_214)">
<path d="M382.639 231H388.51V229.746H384.684V229.623L386.377 227.982C387.918 226.5 388.381 225.738 388.381 224.777V224.76C388.381 223.336 387.197 222.334 385.551 222.334C383.787 222.334 382.557 223.436 382.557 225.012L382.562 225.029L383.969 225.035L383.975 225.012C383.975 224.139 384.578 223.547 385.475 223.547C386.354 223.547 386.887 224.109 386.887 224.889V224.906C386.887 225.557 386.564 225.984 385.416 227.145L382.639 229.98V231ZM394.971 231H396.418V229.377H397.555V228.129H396.418V222.545H394.279C393.131 224.291 391.93 226.236 390.834 228.141V229.377H394.971V231ZM392.24 228.164V228.076C393.061 226.641 394.039 225.076 394.906 223.752H394.994V228.164H392.24Z" fill="#2E2A2A"/>
<path d="M374 180C374 175.582 377.582 172 382 172H396C400.418 172 404 175.582 404 180V210H374V180Z" fill="#E6EEF5"/>
</g>
<g clip-path="url(#clip6_0_214)">
<path fill-rule="evenodd" clip-rule="evenodd" d="M162 35C162 30.5817 165.582 27 170 27H240C244.418 27 248 30.5817 248 35V46C248 50.4183 244.418 54 240 54H210.586H199.319H170C165.582 54 162 50.4183 162 46V35Z" fill="white"/>
<path d="M174.721 43H180.193V42.0508H176.186V41.957L178.107 39.9707C179.637 38.3945 180.053 37.6914 180.053 36.7246V36.7129C180.053 35.3477 178.922 34.3457 177.445 34.3457C175.828 34.3457 174.668 35.4238 174.662 36.9238L174.674 36.9297L175.682 36.9355L175.688 36.9238C175.688 35.9277 176.361 35.2656 177.375 35.2656C178.371 35.2656 178.975 35.9336 178.975 36.8242V36.8359C178.975 37.5742 178.658 38.0137 177.58 39.1797L174.721 42.2734V43ZM185.852 43.1406C187.645 43.1406 188.922 42.1328 188.922 40.7148V40.7031C188.922 39.6602 188.189 38.793 187.105 38.541V38.5176C188.031 38.2305 188.617 37.5273 188.617 36.6367V36.625C188.617 35.3477 187.451 34.4043 185.852 34.4043C184.252 34.4043 183.086 35.3477 183.086 36.625V36.6367C183.086 37.5273 183.672 38.2305 184.598 38.5176V38.541C183.514 38.793 182.781 39.6602 182.781 40.7031V40.7148C182.781 42.1328 184.059 43.1406 185.852 43.1406ZM185.852 38.125C184.832 38.125 184.135 37.5449 184.135 36.7246V36.7129C184.135 35.8926 184.832 35.3125 185.852 35.3125C186.871 35.3125 187.568 35.8926 187.568 36.7129V36.7246C187.568 37.5449 186.871 38.125 185.852 38.125ZM185.852 42.2207C184.686 42.2207 183.854 41.5645 183.854 40.6504V40.6387C183.854 39.7129 184.68 39.0508 185.852 39.0508C187.023 39.0508 187.85 39.7129 187.85 40.6387V40.6504C187.85 41.5645 187.018 42.2207 185.852 42.2207ZM192.055 43.0586C192.477 43.0586 192.816 42.7129 192.816 42.2969C192.816 41.875 192.477 41.5352 192.055 41.5352C191.639 41.5352 191.293 41.875 191.293 42.2969C191.293 42.7129 191.639 43.0586 192.055 43.0586ZM195.721 43H196.828L200.59 35.5234V34.5449H194.994V35.4883H199.518V35.5703L195.721 43ZM207.711 43H208.766V40.0469L209.779 38.9277L212.832 43H214.197L210.506 38.1953L213.887 34.5449H212.562L208.859 38.6523H208.766V34.5449H207.711V43ZM218.373 43H219.369L221.314 36.3262H221.385L223.33 43H224.326L226.629 34.5449H225.527L223.846 41.418H223.775L221.883 34.5449H220.816L218.924 41.418H218.854L217.172 34.5449H216.07L218.373 43ZM229.164 43H230.184V39.2617C230.184 38.1543 230.822 37.4746 231.83 37.4746C232.838 37.4746 233.307 38.0195 233.307 39.1562V43H234.326V38.9102C234.326 37.4102 233.535 36.5723 232.117 36.5723C231.186 36.5723 230.594 36.9648 230.277 37.6328H230.184V34.1758H229.164V43Z" fill="#77838F"/>
</g>
<defs>
<clipPath id="clip0_0_214">
<rect width="30" height="100" fill="white" transform="translate(67 134)"/>
</clipPath>
<clipPath id="clip1_0_214">
<rect width="30" height="135" fill="white" transform="translate(128 99)"/>
</clipPath>
<clipPath id="clip2_0_214">
<rect width="30" height="172" fill="white" transform="translate(190 62)"/>
</clipPath>
<clipPath id="clip3_0_214">
<rect width="30" height="136" fill="white" transform="translate(251 98)"/>
</clipPath>
<clipPath id="clip4_0_214">
<rect width="30" height="100" fill="white" transform="translate(313 134)"/>
</clipPath>
<clipPath id="clip5_0_214">
<rect width="30" height="62" fill="white" transform="translate(374 172)"/>
</clipPath>
<clipPath id="clip6_0_214">
<rect width="86" height="27" fill="white" transform="translate(162 27)"/>
</clipPath>
</defs>
</svg>
