<svg width="420" height="382" viewBox="0 0 420 382" fill="none" xmlns="http://www.w3.org/2000/svg">
<rect width="420" height="382" fill="white"/>
<circle cx="16" cy="49" r="6" fill="#3354F4"/>
<path d="M33.4043 53H34.459V49.3613L37.459 44.5449H36.2578L33.9785 48.3008H33.8848L31.6055 44.5449H30.4043L33.4043 49.3613V53ZM41.4121 53.1113C43.2109 53.1113 44.3242 51.8691 44.3242 49.8477V49.8359C44.3242 47.8086 43.2109 46.5723 41.4121 46.5723C39.6133 46.5723 38.5 47.8086 38.5 49.8359V49.8477C38.5 51.8691 39.6133 53.1113 41.4121 53.1113ZM41.4121 52.209C40.2168 52.209 39.543 51.3359 39.543 49.8477V49.8359C39.543 48.3418 40.2168 47.4746 41.4121 47.4746C42.6074 47.4746 43.2812 48.3418 43.2812 49.8359V49.8477C43.2812 51.3359 42.6074 52.209 41.4121 52.209ZM49.0215 53.1113C49.9473 53.1113 50.5859 52.7305 50.8965 52.0566H50.9902V53H52.0098V46.6836H50.9902V50.4219C50.9902 51.5293 50.3984 52.209 49.2852 52.209C48.2773 52.209 47.8672 51.6641 47.8672 50.5273V46.6836H46.8477V50.7734C46.8477 52.2676 47.5859 53.1113 49.0215 53.1113ZM54.9141 53H55.9336V49.0859C55.9336 48.1602 56.625 47.5449 57.5977 47.5449C57.8203 47.5449 58.0137 47.5684 58.2246 47.6035V46.6133C58.125 46.5957 57.9082 46.5723 57.7148 46.5723C56.8594 46.5723 56.2676 46.959 56.0273 47.6211H55.9336V46.6836H54.9141V53ZM66.7402 53H67.7363L69.6816 46.3262H69.752L71.6973 53H72.6934L74.9961 44.5449H73.8945L72.2129 51.418H72.1426L70.25 44.5449H69.1836L67.291 51.418H67.2207L65.5391 44.5449H64.4375L66.7402 53ZM79.4648 53.1113C80.9531 53.1113 81.8555 52.2676 82.0723 51.4121L82.084 51.3652H81.0645L81.041 51.418C80.8711 51.7988 80.3438 52.2031 79.4883 52.2031C78.3633 52.2031 77.6426 51.4414 77.6133 50.1348H82.1602V49.7363C82.1602 47.8496 81.1172 46.5723 79.4004 46.5723C77.6836 46.5723 76.5703 47.9082 76.5703 49.8594V49.8652C76.5703 51.8457 77.6602 53.1113 79.4648 53.1113ZM79.3945 47.4805C80.3262 47.4805 81.0176 48.0723 81.123 49.3203H77.6309C77.7422 48.1191 78.457 47.4805 79.3945 47.4805ZM85.2812 45.4648C85.668 45.4648 85.9844 45.1484 85.9844 44.7617C85.9844 44.375 85.668 44.0586 85.2812 44.0586C84.8945 44.0586 84.5781 44.375 84.5781 44.7617C84.5781 45.1484 84.8945 45.4648 85.2812 45.4648ZM84.7656 53H85.7852V46.6836H84.7656V53ZM91.3086 55.2266C93.0312 55.2266 94.1211 54.3242 94.1211 52.9121V46.6836H93.1016V47.7266H93.0312C92.6445 47.0117 91.9531 46.5723 91.0625 46.5723C89.4102 46.5723 88.3906 47.8555 88.3906 49.625V49.6367C88.3906 51.4062 89.4043 52.6719 91.0391 52.6719C91.9062 52.6719 92.6211 52.2793 93.0195 51.582H93.1133V52.8594C93.1133 53.791 92.4395 54.3242 91.3086 54.3242C90.4004 54.3242 89.8379 53.9844 89.7266 53.5039L89.7207 53.498H88.666L88.6543 53.5039C88.8125 54.541 89.7852 55.2266 91.3086 55.2266ZM91.2617 51.7695C90.0898 51.7695 89.4336 50.8906 89.4336 49.6367V49.625C89.4336 48.3711 90.0898 47.4746 91.2617 47.4746C92.4277 47.4746 93.1367 48.3711 93.1367 49.625V49.6367C93.1367 50.8906 92.4336 51.7695 91.2617 51.7695ZM97.0781 53H98.0977V49.2617C98.0977 48.1543 98.7363 47.4746 99.7441 47.4746C100.752 47.4746 101.221 48.0195 101.221 49.1562V53H102.24V48.9102C102.24 47.4102 101.449 46.5723 100.031 46.5723C99.0996 46.5723 98.5078 46.9648 98.1914 47.6328H98.0977V44.1758H97.0781V53ZM107.33 53.0469C107.529 53.0469 107.723 53.0234 107.922 52.9883V52.1211C107.734 52.1387 107.635 52.1445 107.453 52.1445C106.797 52.1445 106.539 51.8457 106.539 51.1016V47.5273H107.922V46.6836H106.539V45.0488H105.484V46.6836H104.488V47.5273H105.484V51.3594C105.484 52.5664 106.029 53.0469 107.33 53.0469Z" fill="#77838F"/>
<circle cx="150" cy="49" r="6" fill="#74ABFF"/>
<path d="M165.078 53H166.133V44.5449H165.078V53ZM171.492 53.1113C172.371 53.1113 173.074 52.6953 173.461 51.9922H173.555V53H174.574V44.1758H173.555V47.6797H173.461C173.115 47.0059 172.359 46.5723 171.492 46.5723C169.887 46.5723 168.844 47.8555 168.844 49.8359V49.8477C168.844 51.8164 169.893 53.1113 171.492 53.1113ZM171.727 52.209C170.572 52.209 169.887 51.3184 169.887 49.8477V49.8359C169.887 48.3652 170.572 47.4746 171.727 47.4746C172.875 47.4746 173.578 48.377 173.578 49.8359V49.8477C173.578 51.3066 172.875 52.209 171.727 52.209ZM180.109 53.1113C181.598 53.1113 182.5 52.2676 182.717 51.4121L182.729 51.3652H181.709L181.686 51.418C181.516 51.7988 180.988 52.2031 180.133 52.2031C179.008 52.2031 178.287 51.4414 178.258 50.1348H182.805V49.7363C182.805 47.8496 181.762 46.5723 180.045 46.5723C178.328 46.5723 177.215 47.9082 177.215 49.8594V49.8652C177.215 51.8457 178.305 53.1113 180.109 53.1113ZM180.039 47.4805C180.971 47.4805 181.662 48.0723 181.768 49.3203H178.275C178.387 48.1191 179.102 47.4805 180.039 47.4805ZM187.121 53.1113C187.971 53.1113 188.633 52.7422 189.031 52.0684H189.125V53H190.145V48.6758C190.145 47.3633 189.283 46.5723 187.742 46.5723C186.395 46.5723 185.434 47.2402 185.27 48.2305L185.264 48.2656H186.283L186.289 48.248C186.453 47.7559 186.951 47.4746 187.707 47.4746C188.65 47.4746 189.125 47.8965 189.125 48.6758V49.25L187.314 49.3613C185.844 49.4492 185.012 50.0996 185.012 51.2246V51.2363C185.012 52.3848 185.92 53.1113 187.121 53.1113ZM186.055 51.2129V51.2012C186.055 50.5742 186.477 50.2344 187.438 50.1758L189.125 50.0703V50.6445C189.125 51.5469 188.369 52.2266 187.332 52.2266C186.6 52.2266 186.055 51.8516 186.055 51.2129ZM193.066 53H194.086V44.1758H193.066V53ZM203.299 53H204.295L206.24 46.3262H206.311L208.256 53H209.252L211.555 44.5449H210.453L208.771 51.418H208.701L206.809 44.5449H205.742L203.85 51.418H203.779L202.098 44.5449H200.996L203.299 53ZM216.023 53.1113C217.512 53.1113 218.414 52.2676 218.631 51.4121L218.643 51.3652H217.623L217.6 51.418C217.43 51.7988 216.902 52.2031 216.047 52.2031C214.922 52.2031 214.201 51.4414 214.172 50.1348H218.719V49.7363C218.719 47.8496 217.676 46.5723 215.959 46.5723C214.242 46.5723 213.129 47.9082 213.129 49.8594V49.8652C213.129 51.8457 214.219 53.1113 216.023 53.1113ZM215.953 47.4805C216.885 47.4805 217.576 48.0723 217.682 49.3203H214.189C214.301 48.1191 215.016 47.4805 215.953 47.4805ZM221.84 45.4648C222.227 45.4648 222.543 45.1484 222.543 44.7617C222.543 44.375 222.227 44.0586 221.84 44.0586C221.453 44.0586 221.137 44.375 221.137 44.7617C221.137 45.1484 221.453 45.4648 221.84 45.4648ZM221.324 53H222.344V46.6836H221.324V53ZM227.867 55.2266C229.59 55.2266 230.68 54.3242 230.68 52.9121V46.6836H229.66V47.7266H229.59C229.203 47.0117 228.512 46.5723 227.621 46.5723C225.969 46.5723 224.949 47.8555 224.949 49.625V49.6367C224.949 51.4062 225.963 52.6719 227.598 52.6719C228.465 52.6719 229.18 52.2793 229.578 51.582H229.672V52.8594C229.672 53.791 228.998 54.3242 227.867 54.3242C226.959 54.3242 226.396 53.9844 226.285 53.5039L226.279 53.498H225.225L225.213 53.5039C225.371 54.541 226.344 55.2266 227.867 55.2266ZM227.82 51.7695C226.648 51.7695 225.992 50.8906 225.992 49.6367V49.625C225.992 48.3711 226.648 47.4746 227.82 47.4746C228.986 47.4746 229.695 48.3711 229.695 49.625V49.6367C229.695 50.8906 228.992 51.7695 227.82 51.7695ZM233.637 53H234.656V49.2617C234.656 48.1543 235.295 47.4746 236.303 47.4746C237.311 47.4746 237.779 48.0195 237.779 49.1562V53H238.799V48.9102C238.799 47.4102 238.008 46.5723 236.59 46.5723C235.658 46.5723 235.066 46.9648 234.75 47.6328H234.656V44.1758H233.637V53ZM243.889 53.0469C244.088 53.0469 244.281 53.0234 244.48 52.9883V52.1211C244.293 52.1387 244.193 52.1445 244.012 52.1445C243.355 52.1445 243.098 51.8457 243.098 51.1016V47.5273H244.48V46.6836H243.098V45.0488H242.043V46.6836H241.047V47.5273H242.043V51.3594C242.043 52.5664 242.588 53.0469 243.889 53.0469Z" fill="#77838F"/>
<path d="M13.9492 99.1582C15.8301 99.1582 17.1543 98.1504 17.1543 96.7148V96.7031C17.1543 95.6367 16.3867 94.7871 15.2793 94.5469V94.5176C16.2285 94.248 16.8438 93.5391 16.8438 92.6426V92.6309C16.8438 91.3359 15.6367 90.3867 13.9492 90.3867C12.2676 90.3867 11.0547 91.3359 11.0547 92.6309V92.6426C11.0547 93.5391 11.6758 94.248 12.625 94.5176V94.5469C11.5176 94.7871 10.75 95.6367 10.75 96.7031V96.7148C10.75 98.1504 12.0742 99.1582 13.9492 99.1582ZM13.9492 94.0781C13.0059 94.0781 12.3555 93.5273 12.3555 92.7539V92.7422C12.3555 91.9688 13.0059 91.4297 13.9492 91.4297C14.8926 91.4297 15.543 91.9688 15.543 92.7422V92.7539C15.543 93.5273 14.8984 94.0781 13.9492 94.0781ZM13.9492 98.1035C12.8711 98.1035 12.1035 97.4883 12.1035 96.6328V96.6211C12.1035 95.7539 12.8652 95.127 13.9492 95.127C15.0391 95.127 15.8008 95.7539 15.8008 96.6211V96.6328C15.8008 97.4883 15.0332 98.1035 13.9492 98.1035ZM22.7832 99.2051C24.7285 99.2051 25.9062 97.5 25.9062 94.7754V94.7637C25.9062 92.0391 24.7285 90.3398 22.7832 90.3398C20.832 90.3398 19.6602 92.0391 19.6602 94.7637V94.7754C19.6602 97.5 20.832 99.2051 22.7832 99.2051ZM22.7832 98.1152C21.6465 98.1152 20.9844 96.8438 20.9844 94.7754V94.7637C20.9844 92.6953 21.6465 91.4355 22.7832 91.4355C23.9141 91.4355 24.582 92.6953 24.582 94.7637V94.7754C24.582 96.8438 23.9141 98.1152 22.7832 98.1152ZM32.9336 99H34.2051V96.6855L34.75 96.1406L36.9414 99H38.4883L35.6582 95.3203L38.3125 92.6367H36.8242L34.2988 95.3203H34.2051V90.1406H32.9336V99ZM43.0098 101.244C44.8145 101.244 45.957 100.318 45.957 98.8711V92.6367H44.6914V93.6797H44.6152C44.2461 92.9648 43.5547 92.5254 42.6641 92.5254C41.0117 92.5254 39.998 93.8086 39.998 95.625V95.6367C39.998 97.4297 41.0059 98.6895 42.6406 98.6895C43.5137 98.6895 44.2168 98.3027 44.6035 97.6113H44.6973V98.8652C44.6973 99.7324 44.0762 100.225 43.0273 100.225C42.166 100.225 41.6504 99.9141 41.5449 99.4746L41.5391 99.4629H40.2559L40.2441 99.4746C40.3965 100.535 41.3926 101.244 43.0098 101.244ZM42.9922 97.6406C41.9082 97.6406 41.2988 96.8145 41.2988 95.6309V95.6191C41.2988 94.4355 41.9082 93.6035 42.9922 93.6035C44.0645 93.6035 44.7207 94.4355 44.7207 95.6191V95.6309C44.7207 96.8203 44.0703 97.6406 42.9922 97.6406Z" fill="#2E2A2A"/>
<path d="M11.2715 146H12.6484L16.3281 138.682V137.545H10.5684V138.652H14.998V138.746L11.2715 146ZM21.7168 146.205C23.6621 146.205 24.8398 144.5 24.8398 141.775V141.764C24.8398 139.039 23.6621 137.34 21.7168 137.34C19.7656 137.34 18.5938 139.039 18.5938 141.764V141.775C18.5938 144.5 19.7656 146.205 21.7168 146.205ZM21.7168 145.115C20.5801 145.115 19.918 143.844 19.918 141.775V141.764C19.918 139.695 20.5801 138.436 21.7168 138.436C22.8477 138.436 23.5156 139.695 23.5156 141.764V141.775C23.5156 143.844 22.8477 145.115 21.7168 145.115ZM31.8672 146H33.1387V143.686L33.6836 143.141L35.875 146H37.4219L34.5918 142.32L37.2461 139.637H35.7578L33.2324 142.32H33.1387V137.141H31.8672V146ZM41.9434 148.244C43.748 148.244 44.8906 147.318 44.8906 145.871V139.637H43.625V140.68H43.5488C43.1797 139.965 42.4883 139.525 41.5977 139.525C39.9453 139.525 38.9316 140.809 38.9316 142.625V142.637C38.9316 144.43 39.9395 145.689 41.5742 145.689C42.4473 145.689 43.1504 145.303 43.5371 144.611H43.6309V145.865C43.6309 146.732 43.0098 147.225 41.9609 147.225C41.0996 147.225 40.584 146.914 40.4785 146.475L40.4727 146.463H39.1895L39.1777 146.475C39.3301 147.535 40.3262 148.244 41.9434 148.244ZM41.9258 144.641C40.8418 144.641 40.2324 143.814 40.2324 142.631V142.619C40.2324 141.436 40.8418 140.604 41.9258 140.604C42.998 140.604 43.6543 141.436 43.6543 142.619V142.631C43.6543 143.82 43.0039 144.641 41.9258 144.641Z" fill="#2E2A2A"/>
<path d="M14.0371 193.205C15.8125 193.205 17.0957 191.963 17.0957 190.264V190.252C17.0957 188.635 15.9414 187.439 14.3301 187.439C13.1758 187.439 12.4141 188.043 12.1035 188.723H11.9922C11.9922 188.658 11.9922 188.594 11.998 188.529C12.0625 186.842 12.6543 185.453 14.0781 185.453C14.875 185.453 15.4258 185.863 15.6602 186.508L15.6836 186.566H16.9844L16.9727 186.496C16.6914 185.219 15.5781 184.34 14.084 184.34C11.9922 184.34 10.7441 186.027 10.7441 188.887V188.898C10.7441 192.01 12.3379 193.205 14.0371 193.205ZM12.25 190.264V190.258C12.25 189.238 13.0234 188.5 14.0371 188.5C15.0625 188.5 15.8008 189.25 15.8008 190.287V190.299C15.8008 191.312 15.0156 192.104 14.0254 192.104C13.0293 192.104 12.25 191.295 12.25 190.264ZM22.748 193.205C24.6934 193.205 25.8711 191.5 25.8711 188.775V188.764C25.8711 186.039 24.6934 184.34 22.748 184.34C20.7969 184.34 19.625 186.039 19.625 188.764V188.775C19.625 191.5 20.7969 193.205 22.748 193.205ZM22.748 192.115C21.6113 192.115 20.9492 190.844 20.9492 188.775V188.764C20.9492 186.695 21.6113 185.436 22.748 185.436C23.8789 185.436 24.5469 186.695 24.5469 188.764V188.775C24.5469 190.844 23.8789 192.115 22.748 192.115ZM32.8984 193H34.1699V190.686L34.7148 190.141L36.9062 193H38.4531L35.623 189.32L38.2773 186.637H36.7891L34.2637 189.32H34.1699V184.141H32.8984V193ZM42.9746 195.244C44.7793 195.244 45.9219 194.318 45.9219 192.871V186.637H44.6562V187.68H44.5801C44.2109 186.965 43.5195 186.525 42.6289 186.525C40.9766 186.525 39.9629 187.809 39.9629 189.625V189.637C39.9629 191.43 40.9707 192.689 42.6055 192.689C43.4785 192.689 44.1816 192.303 44.5684 191.611H44.6621V192.865C44.6621 193.732 44.041 194.225 42.9922 194.225C42.1309 194.225 41.6152 193.914 41.5098 193.475L41.5039 193.463H40.2207L40.209 193.475C40.3613 194.535 41.3574 195.244 42.9746 195.244ZM42.957 191.641C41.873 191.641 41.2637 190.814 41.2637 189.631V189.619C41.2637 188.436 41.873 187.604 42.957 187.604C44.0293 187.604 44.6855 188.436 44.6855 189.619V189.631C44.6855 190.82 44.0352 191.641 42.957 191.641Z" fill="#2E2A2A"/>
<path d="M13.8438 240.205C15.625 240.205 16.8789 239.01 16.8789 237.275V237.264C16.8789 235.641 15.7422 234.457 14.1543 234.457C13.375 234.457 12.7129 234.785 12.3555 235.354H12.2559L12.5137 232.658H16.3984V231.545H11.4824L11.0605 236.455H12.1914C12.291 236.262 12.4258 236.098 12.5781 235.963C12.9121 235.658 13.3516 235.506 13.8672 235.506C14.8867 235.506 15.625 236.244 15.625 237.287V237.299C15.625 238.359 14.8984 239.104 13.8555 239.104C12.9297 239.104 12.2559 238.512 12.1445 237.768L12.1387 237.721H10.9082L10.9141 237.797C11.0312 239.168 12.1797 240.205 13.8438 240.205ZM22.5137 240.205C24.459 240.205 25.6367 238.5 25.6367 235.775V235.764C25.6367 233.039 24.459 231.34 22.5137 231.34C20.5625 231.34 19.3906 233.039 19.3906 235.764V235.775C19.3906 238.5 20.5625 240.205 22.5137 240.205ZM22.5137 239.115C21.377 239.115 20.7148 237.844 20.7148 235.775V235.764C20.7148 233.695 21.377 232.436 22.5137 232.436C23.6445 232.436 24.3125 233.695 24.3125 235.764V235.775C24.3125 237.844 23.6445 239.115 22.5137 239.115ZM32.6641 240H33.9355V237.686L34.4805 237.141L36.6719 240H38.2188L35.3887 236.32L38.043 233.637H36.5547L34.0293 236.32H33.9355V231.141H32.6641V240ZM42.7402 242.244C44.5449 242.244 45.6875 241.318 45.6875 239.871V233.637H44.4219V234.68H44.3457C43.9766 233.965 43.2852 233.525 42.3945 233.525C40.7422 233.525 39.7285 234.809 39.7285 236.625V236.637C39.7285 238.43 40.7363 239.689 42.3711 239.689C43.2441 239.689 43.9473 239.303 44.334 238.611H44.4277V239.865C44.4277 240.732 43.8066 241.225 42.7578 241.225C41.8965 241.225 41.3809 240.914 41.2754 240.475L41.2695 240.463H39.9863L39.9746 240.475C40.127 241.535 41.123 242.244 42.7402 242.244ZM42.7227 238.641C41.6387 238.641 41.0293 237.814 41.0293 236.631V236.619C41.0293 235.436 41.6387 234.604 42.7227 234.604C43.7949 234.604 44.4512 235.436 44.4512 236.619V236.631C44.4512 237.82 43.8008 238.641 42.7227 238.641Z" fill="#2E2A2A"/>
<path d="M14.793 287H16.0586V285.318H17.2246V284.205H16.0586V278.545H14.1895C13.0234 280.297 11.7812 282.295 10.668 284.205V285.318H14.793V287ZM11.9277 284.229V284.146C12.7949 282.664 13.8262 281.018 14.7344 279.652H14.8105V284.229H11.9277ZM22.8066 287.205C24.752 287.205 25.9297 285.5 25.9297 282.775V282.764C25.9297 280.039 24.752 278.34 22.8066 278.34C20.8555 278.34 19.6836 280.039 19.6836 282.764V282.775C19.6836 285.5 20.8555 287.205 22.8066 287.205ZM22.8066 286.115C21.6699 286.115 21.0078 284.844 21.0078 282.775V282.764C21.0078 280.695 21.6699 279.436 22.8066 279.436C23.9375 279.436 24.6055 280.695 24.6055 282.764V282.775C24.6055 284.844 23.9375 286.115 22.8066 286.115ZM32.957 287H34.2285V284.686L34.7734 284.141L36.9648 287H38.5117L35.6816 283.32L38.3359 280.637H36.8477L34.3223 283.32H34.2285V278.141H32.957V287ZM43.0332 289.244C44.8379 289.244 45.9805 288.318 45.9805 286.871V280.637H44.7148V281.68H44.6387C44.2695 280.965 43.5781 280.525 42.6875 280.525C41.0352 280.525 40.0215 281.809 40.0215 283.625V283.637C40.0215 285.43 41.0293 286.689 42.6641 286.689C43.5371 286.689 44.2402 286.303 44.627 285.611H44.7207V286.865C44.7207 287.732 44.0996 288.225 43.0508 288.225C42.1895 288.225 41.6738 287.914 41.5684 287.475L41.5625 287.463H40.2793L40.2676 287.475C40.4199 288.535 41.416 289.244 43.0332 289.244ZM43.0156 285.641C41.9316 285.641 41.3223 284.814 41.3223 283.631V283.619C41.3223 282.436 41.9316 281.604 43.0156 281.604C44.0879 281.604 44.7441 282.436 44.7441 283.619V283.631C44.7441 284.82 44.0938 285.641 43.0156 285.641Z" fill="#2E2A2A"/>
<path d="M13.8906 334.158C15.6836 334.158 16.9551 333.115 16.9551 331.662V331.65C16.9551 330.467 16.123 329.717 14.8809 329.605V329.576C15.9121 329.359 16.6621 328.656 16.6621 327.607V327.596C16.6621 326.289 15.5605 325.387 13.8789 325.387C12.2266 325.387 11.1016 326.33 10.9727 327.754L10.9668 327.818H12.1973L12.2031 327.76C12.2852 326.963 12.9414 326.465 13.8789 326.465C14.834 326.465 15.3848 326.945 15.3848 327.766V327.777C15.3848 328.562 14.7285 329.131 13.7617 329.131H12.7715V330.15H13.8027C14.9277 330.15 15.6191 330.684 15.6191 331.639V331.65C15.6191 332.482 14.9219 333.062 13.8906 333.062C12.8418 333.062 12.1328 332.523 12.0508 331.756L12.0449 331.697H10.791L10.7969 331.768C10.9082 333.168 12.0859 334.158 13.8906 334.158ZM22.584 334.205C24.5293 334.205 25.707 332.5 25.707 329.775V329.764C25.707 327.039 24.5293 325.34 22.584 325.34C20.6328 325.34 19.4609 327.039 19.4609 329.764V329.775C19.4609 332.5 20.6328 334.205 22.584 334.205ZM22.584 333.115C21.4473 333.115 20.7852 331.844 20.7852 329.775V329.764C20.7852 327.695 21.4473 326.436 22.584 326.436C23.7148 326.436 24.3828 327.695 24.3828 329.764V329.775C24.3828 331.844 23.7148 333.115 22.584 333.115ZM32.7344 334H34.0059V331.686L34.5508 331.141L36.7422 334H38.2891L35.459 330.32L38.1133 327.637H36.625L34.0996 330.32H34.0059V325.141H32.7344V334ZM42.8105 336.244C44.6152 336.244 45.7578 335.318 45.7578 333.871V327.637H44.4922V328.68H44.416C44.0469 327.965 43.3555 327.525 42.4648 327.525C40.8125 327.525 39.7988 328.809 39.7988 330.625V330.637C39.7988 332.43 40.8066 333.689 42.4414 333.689C43.3145 333.689 44.0176 333.303 44.4043 332.611H44.498V333.865C44.498 334.732 43.877 335.225 42.8281 335.225C41.9668 335.225 41.4512 334.914 41.3457 334.475L41.3398 334.463H40.0566L40.0449 334.475C40.1973 335.535 41.1934 336.244 42.8105 336.244ZM42.793 332.641C41.709 332.641 41.0996 331.814 41.0996 330.631V330.619C41.0996 329.436 41.709 328.604 42.793 328.604C43.8652 328.604 44.5215 329.436 44.5215 330.619V330.631C44.5215 331.82 43.8711 332.641 42.793 332.641Z" fill="#2E2A2A"/>
<path fill-rule="evenodd" clip-rule="evenodd" d="M73 340V260L116.502 225.91L160 181.889L241.5 148L317 140L410 109.5V340H73Z" fill="url(#paint0_linear_0_271)"/>
<path d="M73 258L114 226.367L160 179.889L241.5 146L317 139L410 107.5" stroke="#3354F4" stroke-width="3"/>
<circle cx="73" cy="258" r="6" fill="#74ABFF"/>
<circle cx="118" cy="221" r="6" fill="#74ABFF"/>
<circle cx="159" cy="181" r="6" fill="#74ABFF"/>
<circle cx="242" cy="146" r="6" fill="#74ABFF"/>
<circle cx="319" cy="138" r="6" fill="#3354F4"/>
<defs>
<linearGradient id="paint0_linear_0_271" x1="73" y1="109.5" x2="73" y2="340" gradientUnits="userSpaceOnUse">
<stop stop-color="#3354F4"/>
<stop offset="1" stop-color="#3354F4" stop-opacity="0.01"/>
</linearGradient>
</defs>
</svg>
