<svg width="420" height="291" viewBox="0 0 420 291" fill="none" xmlns="http://www.w3.org/2000/svg">
<rect width="420" height="291" fill="white"/>
<rect x="17" y="32" width="386" height="228" rx="8" fill="white"/>
<path d="M32.0605 79H33.373V75.2559H37.7148V79H39.0215V70.5449H37.7148V74.1191H33.373V70.5449H32.0605V79ZM44.6914 79.123C46.5547 79.123 47.6973 77.875 47.6973 75.8242V75.8125C47.6973 73.7617 46.5488 72.5137 44.6914 72.5137C42.8281 72.5137 41.6797 73.7676 41.6797 75.8125V75.8242C41.6797 77.875 42.8223 79.123 44.6914 79.123ZM44.6914 78.0625C43.5957 78.0625 42.9805 77.2363 42.9805 75.8242V75.8125C42.9805 74.4004 43.5957 73.5742 44.6914 73.5742C45.7812 73.5742 46.4023 74.4004 46.4023 75.8125V75.8242C46.4023 77.2305 45.7812 78.0625 44.6914 78.0625ZM52.6172 79.041C52.8633 79.041 53.0977 79.0117 53.3027 78.9766V77.9629C53.127 77.9805 53.0156 77.9863 52.8223 77.9863C52.1953 77.9863 51.9375 77.7051 51.9375 77.0195V73.6387H53.3027V72.6367H51.9375V71.0312H50.6426V72.6367H49.6465V73.6387H50.6426V77.3242C50.6426 78.5488 51.2168 79.041 52.6172 79.041Z" fill="#77838F"/>
<path d="M35.6641 146.205C38.1074 146.205 39.6074 144.482 39.6074 141.775V141.764C39.6074 139.051 38.0957 137.34 35.6641 137.34C33.2383 137.34 31.7148 139.045 31.7148 141.764V141.775C31.7148 144.488 33.2031 146.205 35.6641 146.205ZM35.6641 145.045C34.0352 145.045 33.0566 143.756 33.0566 141.775V141.764C33.0566 139.766 34.0645 138.5 35.6641 138.5C37.2637 138.5 38.2656 139.766 38.2656 141.764V141.775C38.2656 143.756 37.2695 145.045 35.6641 145.045ZM42.6934 146H43.959V140.639H45.3594V139.637H43.9473V139.027C43.9473 138.383 44.2227 138.043 44.9258 138.043C45.125 138.043 45.2949 138.055 45.4121 138.072V137.141C45.1953 137.105 44.9492 137.082 44.6621 137.082C43.3379 137.082 42.6934 137.703 42.6934 138.969V139.637H41.6445V140.639H42.6934V146ZM48.2637 146H49.5293V140.639H50.9297V139.637H49.5176V139.027C49.5176 138.383 49.793 138.043 50.4961 138.043C50.6953 138.043 50.8652 138.055 50.9824 138.072V137.141C50.7656 137.105 50.5195 137.082 50.2324 137.082C48.9082 137.082 48.2637 137.703 48.2637 138.969V139.637H47.2148V140.639H48.2637V146Z" fill="#77838F"/>
<path d="M35.5293 213.205C37.416 213.205 38.793 212.127 39.0391 210.504V210.469H37.7383L37.7266 210.492C37.4863 211.447 36.6484 212.045 35.5293 212.045C34.0059 212.045 33.0566 210.785 33.0566 208.781V208.77C33.0566 206.76 34.0059 205.5 35.5234 205.5C36.6367 205.5 37.4863 206.174 37.7324 207.211V207.229H39.0332L39.0391 207.199C38.8164 205.518 37.3867 204.34 35.5234 204.34C33.1738 204.34 31.7148 206.039 31.7148 208.77V208.781C31.7148 211.506 33.1797 213.205 35.5293 213.205ZM44.3164 213.123C46.1797 213.123 47.3223 211.875 47.3223 209.824V209.812C47.3223 207.762 46.1738 206.514 44.3164 206.514C42.4531 206.514 41.3047 207.768 41.3047 209.812V209.824C41.3047 211.875 42.4473 213.123 44.3164 213.123ZM44.3164 212.062C43.2207 212.062 42.6055 211.236 42.6055 209.824V209.812C42.6055 208.4 43.2207 207.574 44.3164 207.574C45.4062 207.574 46.0273 208.4 46.0273 209.812V209.824C46.0273 211.23 45.4062 212.062 44.3164 212.062ZM49.8984 213H51.1699V204.141H49.8984V213ZM56.3828 213.105C57.2734 213.105 57.9707 212.695 58.3398 211.998H58.4395V213H59.7051V204.141H58.4395V207.645H58.3398C58 206.959 57.2559 206.525 56.3828 206.525C54.7656 206.525 53.7461 207.797 53.7461 209.812V209.824C53.7461 211.822 54.7832 213.105 56.3828 213.105ZM56.7461 212.021C55.6797 212.021 55.041 211.189 55.041 209.824V209.812C55.041 208.447 55.6797 207.615 56.7461 207.615C57.8008 207.615 58.457 208.453 58.457 209.812V209.824C58.457 211.184 57.8066 212.021 56.7461 212.021Z" fill="#77838F"/>
<path d="M80 76.5H389" stroke="#F0F0F0"/>
<path d="M79 109.5H388" stroke="#F0F0F0"/>
<path d="M80 143.5H389" stroke="#F0F0F0"/>
<path d="M80 176.5H389" stroke="#F0F0F0"/>
<path d="M80 210.5H389" stroke="#F0F0F0"/>
<rect x="88" y="46" width="10" height="64" rx="5" fill="#3354F4"/>
<rect x="88" y="116" width="10" height="34" rx="5" fill="#A9BCCC"/>
<rect x="88" y="156" width="10" height="63" rx="5" fill="#74ABFF"/>
<path d="M84.082 240.211C85.8164 240.211 86.8301 239.203 86.8301 237.492V231.545H85.3184V237.48C85.3184 238.395 84.8848 238.887 84.0703 238.887C83.3203 238.887 82.9219 238.4 82.8809 237.75L82.875 237.709H81.3984L81.4043 237.773C81.4629 239.221 82.4414 240.211 84.082 240.211ZM91.4512 240.105C92.2949 240.105 92.9746 239.742 93.3262 239.121H93.4258V240H94.8672V235.623C94.8672 234.27 93.9414 233.473 92.2949 233.473C90.7715 233.473 89.7402 234.188 89.5996 235.266L89.5938 235.318H90.9707L90.9766 235.295C91.123 234.873 91.5566 234.633 92.2246 234.633C93.0098 234.633 93.4258 234.984 93.4258 235.623V236.174L91.7793 236.273C90.2207 236.367 89.3477 237.035 89.3477 238.178V238.189C89.3477 239.355 90.2324 240.105 91.4512 240.105ZM90.7891 238.119V238.107C90.7891 237.58 91.1699 237.281 91.9844 237.229L93.4258 237.135V237.65C93.4258 238.412 92.7754 238.986 91.8965 238.986C91.252 238.986 90.7891 238.664 90.7891 238.119ZM97.6191 240H99.0781V236.268C99.0781 235.307 99.6172 234.697 100.484 234.697C101.369 234.697 101.773 235.201 101.773 236.197V240H103.232V235.857C103.232 234.334 102.453 233.473 101.023 233.473C100.098 233.473 99.4824 233.889 99.1777 234.574H99.0781V233.596H97.6191V240Z" fill="#222426"/>
<rect x="142" y="46" width="10" height="55" rx="5" fill="#3354F4"/>
<rect x="142" y="107" width="10" height="51" rx="5" fill="#A9BCCC"/>
<rect x="142" y="164" width="10" height="55" rx="5" fill="#84BAF5"/>
<path d="M135.145 240H136.656V236.549H140.201V235.318H136.656V232.816H140.535V231.545H135.145V240ZM145.801 240.129C147.541 240.129 148.396 239.127 148.602 238.301L148.619 238.248H147.23L147.213 238.289C147.072 238.582 146.621 238.98 145.83 238.98C144.84 238.98 144.219 238.312 144.201 237.164H148.678V236.684C148.678 234.75 147.553 233.473 145.73 233.473C143.908 233.473 142.742 234.791 142.742 236.807V236.812C142.742 238.852 143.896 240.129 145.801 240.129ZM145.748 234.615C146.562 234.615 147.154 235.137 147.254 236.186H144.213C144.324 235.166 144.934 234.615 145.748 234.615ZM154.699 240.105C156.305 240.105 157.33 238.834 157.33 236.807V236.795C157.33 234.756 156.322 233.49 154.699 233.49C153.82 233.49 153.088 233.924 152.754 234.615H152.654V231.117H151.195V240H152.654V238.998H152.754C153.105 239.695 153.803 240.105 154.699 240.105ZM154.242 238.875C153.252 238.875 152.637 238.09 152.637 236.807V236.795C152.637 235.512 153.252 234.721 154.242 234.721C155.238 234.721 155.842 235.506 155.842 236.795V236.807C155.842 238.096 155.238 238.875 154.242 238.875Z" fill="#222426"/>
<rect x="196" y="46" width="10" height="63" rx="5" fill="#3354F4"/>
<rect x="196" y="115" width="10" height="51" rx="5" fill="#A9BCCC"/>
<rect x="196" y="172" width="10" height="47" rx="5" fill="#74ABFF"/>
<path d="M189.723 240H191.088V233.988H191.188L193.531 240H194.562L196.906 233.988H197.012V240H198.371V231.545H196.637L194.1 238.049H194L191.457 231.545H189.723V240ZM203.051 240.105C203.895 240.105 204.574 239.742 204.926 239.121H205.025V240H206.467V235.623C206.467 234.27 205.541 233.473 203.895 233.473C202.371 233.473 201.34 234.188 201.199 235.266L201.193 235.318H202.57L202.576 235.295C202.723 234.873 203.156 234.633 203.824 234.633C204.609 234.633 205.025 234.984 205.025 235.623V236.174L203.379 236.273C201.82 236.367 200.947 237.035 200.947 238.178V238.189C200.947 239.355 201.832 240.105 203.051 240.105ZM202.389 238.119V238.107C202.389 237.58 202.77 237.281 203.584 237.229L205.025 237.135V237.65C205.025 238.412 204.375 238.986 203.496 238.986C202.852 238.986 202.389 238.664 202.389 238.119ZM209.219 240H210.678V236.279C210.678 235.365 211.316 234.785 212.289 234.785C212.541 234.785 212.781 234.82 213.016 234.867V233.561C212.875 233.52 212.646 233.49 212.424 233.49C211.58 233.49 210.994 233.895 210.777 234.58H210.678V233.596H209.219V240Z" fill="#222426"/>
<rect x="251" y="46" width="10" height="52" rx="5" fill="#3354F4"/>
<rect x="251" y="104" width="10" height="58" rx="5" fill="#A9BCCC"/>
<rect x="251" y="168" width="10" height="51" rx="5" fill="#74ABFF"/>
<path d="M243.852 240H245.434L246.137 237.814H249.266L249.975 240H251.557L248.557 231.545H246.852L243.852 240ZM247.654 233.115H247.754L248.891 236.648H246.518L247.654 233.115ZM253.857 242.127H255.316V238.98H255.416C255.75 239.672 256.482 240.105 257.361 240.105C258.984 240.105 259.992 238.846 259.992 236.807V236.795C259.992 234.768 258.967 233.49 257.361 233.49C256.465 233.49 255.768 233.9 255.416 234.598H255.316V233.596H253.857V242.127ZM256.904 238.875C255.914 238.875 255.299 238.084 255.299 236.801V236.789C255.299 235.506 255.914 234.721 256.904 234.721C257.9 234.721 258.504 235.506 258.504 236.795V236.807C258.504 238.09 257.9 238.875 256.904 238.875ZM262.463 240H263.922V236.279C263.922 235.365 264.561 234.785 265.533 234.785C265.785 234.785 266.025 234.82 266.26 234.867V233.561C266.119 233.52 265.891 233.49 265.668 233.49C264.824 233.49 264.238 233.895 264.021 234.58H263.922V233.596H262.463V240Z" fill="#222426"/>
<rect x="306" y="46" width="10" height="49" rx="5" fill="#3354F4"/>
<rect x="306" y="101" width="10" height="47" rx="5" fill="#A9BCCC"/>
<rect x="306" y="154" width="10" height="65" rx="5" fill="#74ABFF"/>
<path d="M299.35 240H300.715V233.988H300.814L303.158 240H304.189L306.533 233.988H306.639V240H307.998V231.545H306.264L303.727 238.049H303.627L301.084 231.545H299.35V240ZM312.678 240.105C313.521 240.105 314.201 239.742 314.553 239.121H314.652V240H316.094V235.623C316.094 234.27 315.168 233.473 313.521 233.473C311.998 233.473 310.967 234.188 310.826 235.266L310.82 235.318H312.197L312.203 235.295C312.35 234.873 312.783 234.633 313.451 234.633C314.236 234.633 314.652 234.984 314.652 235.623V236.174L313.006 236.273C311.447 236.367 310.574 237.035 310.574 238.178V238.189C310.574 239.355 311.459 240.105 312.678 240.105ZM312.016 238.119V238.107C312.016 237.58 312.396 237.281 313.211 237.229L314.652 237.135V237.65C314.652 238.412 314.002 238.986 313.123 238.986C312.479 238.986 312.016 238.664 312.016 238.119ZM319.332 242.25C320.75 242.25 321.482 241.74 322.033 240.135L324.33 233.596H322.795L321.307 238.6H321.195L319.701 233.596H318.107L320.398 240.006L320.322 240.299C320.164 240.879 319.807 241.125 319.209 241.125C319.057 241.125 318.893 241.119 318.775 241.107V242.227C318.951 242.244 319.156 242.25 319.332 242.25Z" fill="#222426"/>
<rect x="366.5" y="46" width="10" height="70" rx="5" fill="#3354F4"/>
<rect x="366.5" y="122" width="10" height="51" rx="5" fill="#A9BCCC"/>
<rect x="366.5" y="179" width="10" height="40" rx="5" fill="#74ABFF"/>
<path d="M358.303 240.211C360.037 240.211 361.051 239.203 361.051 237.492V231.545H359.539V237.48C359.539 238.395 359.105 238.887 358.291 238.887C357.541 238.887 357.143 238.4 357.102 237.75L357.096 237.709H355.619L355.625 237.773C355.684 239.221 356.662 240.211 358.303 240.211ZM366.105 240.129C367.031 240.129 367.682 239.713 367.98 239.027H368.08V240H369.539V233.596H368.08V237.328C368.08 238.289 367.576 238.898 366.633 238.898C365.754 238.898 365.385 238.395 365.385 237.404V233.596H363.926V237.738C363.926 239.262 364.664 240.129 366.105 240.129ZM372.32 240H373.779V236.268C373.779 235.307 374.318 234.697 375.186 234.697C376.07 234.697 376.475 235.201 376.475 236.197V240H377.934V235.857C377.934 234.334 377.154 233.473 375.725 233.473C374.799 233.473 374.184 233.889 373.879 234.574H373.779V233.596H372.32V240ZM383.398 240.129C385.139 240.129 385.994 239.127 386.199 238.301L386.217 238.248H384.828L384.811 238.289C384.67 238.582 384.219 238.98 383.428 238.98C382.438 238.98 381.816 238.312 381.799 237.164H386.275V236.684C386.275 234.75 385.15 233.473 383.328 233.473C381.506 233.473 380.34 234.791 380.34 236.807V236.812C380.34 238.852 381.494 240.129 383.398 240.129ZM383.346 234.615C384.16 234.615 384.752 235.137 384.852 236.186H381.811C381.922 235.166 382.531 234.615 383.346 234.615Z" fill="#222426"/>
</svg>
