<svg width="421" height="178" viewBox="0 0 421 178" fill="none" xmlns="http://www.w3.org/2000/svg">
<rect width="421" height="178" fill="white"/>
<g clip-path="url(#clip0_0_381)">
<path d="M19.5645 42H21.832V37.8076H24.627C27.2021 37.8076 28.9424 36.1025 28.9424 33.5713V33.5537C28.9424 31.0137 27.2021 29.3174 24.627 29.3174H19.5645V42ZM24.0732 31.1719C25.6992 31.1719 26.6484 32.042 26.6484 33.5625V33.5801C26.6484 35.1006 25.6992 35.9795 24.0732 35.9795H21.832V31.1719H24.0732ZM32.2188 42H34.4072V36.4189C34.4072 35.0479 35.3652 34.1777 36.8242 34.1777C37.2021 34.1777 37.5625 34.2305 37.9141 34.3008V32.3408C37.7031 32.2793 37.3604 32.2354 37.0264 32.2354C35.7607 32.2354 34.8818 32.8418 34.5566 33.8701H34.4072V32.3936H32.2188V42ZM41.832 30.7852C42.5439 30.7852 43.1328 30.2139 43.1328 29.4932C43.1328 28.7812 42.5439 28.2012 41.832 28.2012C41.1113 28.2012 40.5225 28.7812 40.5225 29.4932C40.5225 30.2139 41.1113 30.7852 41.832 30.7852ZM40.7334 42H42.9219V32.3936H40.7334V42ZM50.7334 42.1934C53.168 42.1934 54.583 40.8838 54.8994 38.915L54.917 38.8447L52.8516 38.8535L52.834 38.8887C52.5615 39.8994 51.8672 40.418 50.7334 40.418C49.248 40.418 48.3604 39.2227 48.3604 37.1836V37.166C48.3604 35.1533 49.2393 33.9756 50.7334 33.9756C51.9287 33.9756 52.6406 34.6436 52.8428 35.5752L52.8516 35.6016H54.917V35.5664C54.6709 33.5801 53.1943 32.209 50.7246 32.209C47.833 32.209 46.1367 34.0635 46.1367 37.166V37.1836C46.1367 40.3213 47.8418 42.1934 50.7334 42.1934ZM62.1133 42.1934C64.7236 42.1934 66.0068 40.6904 66.3145 39.4512L66.3408 39.3721H64.2578L64.2314 39.4336C64.0205 39.873 63.3438 40.4707 62.1572 40.4707C60.6719 40.4707 59.7402 39.4688 59.7139 37.7461H66.4287V37.0254C66.4287 34.125 64.7412 32.209 62.0078 32.209C59.2744 32.209 57.5254 34.1865 57.5254 37.21V37.2188C57.5254 40.2773 59.2568 42.1934 62.1133 42.1934ZM62.0342 33.9229C63.2559 33.9229 64.1436 34.7051 64.293 36.2783H59.7314C59.8984 34.749 60.8125 33.9229 62.0342 33.9229ZM75.6445 42H77.9121V37.2275H80.4258L82.9131 42H85.5059L82.7373 36.8848C84.2402 36.3398 85.1279 34.9512 85.1279 33.2725V33.2549C85.1279 30.8379 83.4932 29.3174 80.7686 29.3174H75.6445V42ZM77.9121 35.4873V31.1543H80.4873C81.9287 31.1543 82.7988 31.9805 82.7988 33.3076V33.3252C82.7988 34.6875 81.9639 35.4873 80.5312 35.4873H77.9121ZM91.2344 42.1582C92.5 42.1582 93.5195 41.6133 94.0469 40.6816H94.1963V42H96.3584V35.4346C96.3584 33.4043 94.9697 32.209 92.5 32.209C90.2148 32.209 88.668 33.2812 88.457 34.8984L88.4482 34.9775H90.5137L90.5225 34.9424C90.7422 34.3096 91.3926 33.9492 92.3945 33.9492C93.5723 33.9492 94.1963 34.4766 94.1963 35.4346V36.2607L91.7266 36.4102C89.3887 36.5508 88.0791 37.5527 88.0791 39.2666V39.2842C88.0791 41.0332 89.4062 42.1582 91.2344 42.1582ZM90.2412 39.1787V39.1611C90.2412 38.3701 90.8125 37.9219 92.0342 37.8428L94.1963 37.7021V38.4756C94.1963 39.6182 93.2207 40.4795 91.9023 40.4795C90.9355 40.4795 90.2412 39.9961 90.2412 39.1787ZM99.9863 42H102.175V36.4014C102.175 34.96 102.983 34.0459 104.284 34.0459C105.611 34.0459 106.218 34.8018 106.218 36.2959V42H108.406V35.7861C108.406 33.501 107.237 32.209 105.093 32.209C103.704 32.209 102.781 32.833 102.324 33.8613H102.175V32.3936H99.9863V42ZM116.121 45.375C118.925 45.375 120.7 43.9775 120.7 41.7627V32.3936H118.512V33.9756H118.397C117.853 32.8857 116.815 32.2354 115.488 32.2354C113.01 32.2354 111.498 34.1514 111.498 36.9287V36.9463C111.498 39.6709 113.01 41.5518 115.444 41.5518C116.771 41.5518 117.817 40.9893 118.371 39.9609H118.521V41.7979C118.521 43.0283 117.65 43.7227 116.156 43.7227C114.935 43.7227 114.205 43.292 114.056 42.6768L114.047 42.6504H111.858L111.85 42.6768C112.069 44.2939 113.59 45.375 116.121 45.375ZM116.121 39.8115C114.601 39.8115 113.739 38.6426 113.739 36.9463V36.9287C113.739 35.2324 114.601 34.0547 116.121 34.0547C117.633 34.0547 118.556 35.2324 118.556 36.9287V36.9463C118.556 38.6426 117.642 39.8115 116.121 39.8115ZM128.494 42.1934C131.104 42.1934 132.388 40.6904 132.695 39.4512L132.722 39.3721H130.639L130.612 39.4336C130.401 39.873 129.725 40.4707 128.538 40.4707C127.053 40.4707 126.121 39.4688 126.095 37.7461H132.81V37.0254C132.81 34.125 131.122 32.209 128.389 32.209C125.655 32.209 123.906 34.1865 123.906 37.21V37.2188C123.906 40.2773 125.638 42.1934 128.494 42.1934ZM128.415 33.9229C129.637 33.9229 130.524 34.7051 130.674 36.2783H126.112C126.279 34.749 127.193 33.9229 128.415 33.9229Z" fill="#2E2A2A"/>
<path d="M18 125H404" stroke="#E6EEF5" stroke-width="3"/>
<path d="M81 125H341" stroke="#3354F4" stroke-width="3"/>
<rect x="106" y="108" width="10" height="16" fill="#3354F4"/>
<rect x="126" y="104" width="10" height="20" fill="#3354F4"/>
<rect x="146" y="99" width="10" height="25" fill="#3354F4"/>
<rect x="166" y="90" width="10" height="34" fill="#3354F4"/>
<rect x="186" y="80" width="10" height="44" fill="#3354F4"/>
<rect x="206" y="70" width="10" height="54" fill="#3354F4"/>
<rect x="226" y="75" width="10" height="49" fill="#3354F4"/>
<rect x="246" y="83" width="10" height="41" fill="#3354F4"/>
<rect x="266" y="97" width="10" height="27" fill="#3354F4"/>
<rect x="286" y="103" width="10" height="21" fill="#3354F4"/>
<rect x="306" y="111" width="10" height="13" fill="#3354F4"/>
<circle cx="85" cy="125" r="5" fill="white" stroke="#3354F4" stroke-width="4"/>
<circle cx="341" cy="125" r="5" fill="white" stroke="#3354F4" stroke-width="4"/>
<path d="M68.2734 151.844H68.9648V150.865C70.4473 150.754 71.6133 149.939 71.6133 148.51V148.498C71.6133 147.256 70.7695 146.623 69.2285 146.266L68.9648 146.201V143.746C69.709 143.852 70.2246 144.297 70.3066 145.023V145.035L71.5195 145.029V145.023C71.4668 143.705 70.418 142.803 68.9648 142.68V141.695H68.2734V142.68C66.8027 142.797 65.7598 143.664 65.7598 144.971V144.982C65.7598 146.166 66.5625 146.834 68.0449 147.18L68.2734 147.238V149.799C67.3301 149.699 66.8906 149.189 66.791 148.51V148.498L65.5723 148.504V148.51C65.6191 149.904 66.791 150.748 68.2734 150.865V151.844ZM66.9961 144.889V144.877C66.9961 144.344 67.4355 143.857 68.2734 143.746V146.037C67.3477 145.803 66.9961 145.41 66.9961 144.889ZM70.3711 148.615V148.627C70.3711 149.248 69.9551 149.723 68.9648 149.805V147.396C70.043 147.654 70.3711 148.012 70.3711 148.615ZM74.3887 151H80.084V149.881H76.1758V149.764L77.9688 147.977C79.5039 146.453 79.9492 145.715 79.9492 144.754V144.736C79.9492 143.342 78.7891 142.34 77.2129 142.34C75.5137 142.34 74.3184 143.43 74.3125 144.977L74.3242 144.988H75.5547L75.5605 144.971C75.5605 144.045 76.1934 143.424 77.1426 143.424C78.0684 143.424 78.6367 144.033 78.6367 144.859V144.877C78.6367 145.562 78.3145 145.996 77.1953 147.162L74.3887 150.109V151ZM85.7891 151.205C87.7344 151.205 88.9121 149.5 88.9121 146.775V146.764C88.9121 144.039 87.7344 142.34 85.7891 142.34C83.8379 142.34 82.666 144.039 82.666 146.764V146.775C82.666 149.5 83.8379 151.205 85.7891 151.205ZM85.7891 150.115C84.6523 150.115 83.9902 148.844 83.9902 146.775V146.764C83.9902 144.695 84.6523 143.436 85.7891 143.436C86.9199 143.436 87.5879 144.695 87.5879 146.764V146.775C87.5879 148.844 86.9199 150.115 85.7891 150.115ZM94.582 151.205C96.5273 151.205 97.7051 149.5 97.7051 146.775V146.764C97.7051 144.039 96.5273 142.34 94.582 142.34C92.6309 142.34 91.459 144.039 91.459 146.764V146.775C91.459 149.5 92.6309 151.205 94.582 151.205ZM94.582 150.115C93.4453 150.115 92.7832 148.844 92.7832 146.775V146.764C92.7832 144.695 93.4453 143.436 94.582 143.436C95.7129 143.436 96.3809 144.695 96.3809 146.764V146.775C96.3809 148.844 95.7129 150.115 94.582 150.115ZM103.375 151.205C105.32 151.205 106.498 149.5 106.498 146.775V146.764C106.498 144.039 105.32 142.34 103.375 142.34C101.424 142.34 100.252 144.039 100.252 146.764V146.775C100.252 149.5 101.424 151.205 103.375 151.205ZM103.375 150.115C102.238 150.115 101.576 148.844 101.576 146.775V146.764C101.576 144.695 102.238 143.436 103.375 143.436C104.506 143.436 105.174 144.695 105.174 146.764V146.775C105.174 148.844 104.506 150.115 103.375 150.115Z" fill="#2E2A2A"/>
<path d="M324.215 151.844H324.906V150.865C326.389 150.754 327.555 149.939 327.555 148.51V148.498C327.555 147.256 326.711 146.623 325.17 146.266L324.906 146.201V143.746C325.65 143.852 326.166 144.297 326.248 145.023V145.035L327.461 145.029V145.023C327.408 143.705 326.359 142.803 324.906 142.68V141.695H324.215V142.68C322.744 142.797 321.701 143.664 321.701 144.971V144.982C321.701 146.166 322.504 146.834 323.986 147.18L324.215 147.238V149.799C323.271 149.699 322.832 149.189 322.732 148.51V148.498L321.514 148.504V148.51C321.561 149.904 322.732 150.748 324.215 150.865V151.844ZM322.938 144.889V144.877C322.938 144.344 323.377 143.857 324.215 143.746V146.037C323.289 145.803 322.938 145.41 322.938 144.889ZM326.312 148.615V148.627C326.312 149.248 325.896 149.723 324.906 149.805V147.396C325.984 147.654 326.312 148.012 326.312 148.615ZM333.307 151.158C335.1 151.158 336.371 150.115 336.371 148.662V148.65C336.371 147.467 335.539 146.717 334.297 146.605V146.576C335.328 146.359 336.078 145.656 336.078 144.607V144.596C336.078 143.289 334.977 142.387 333.295 142.387C331.643 142.387 330.518 143.33 330.389 144.754L330.383 144.818H331.613L331.619 144.76C331.701 143.963 332.357 143.465 333.295 143.465C334.25 143.465 334.801 143.945 334.801 144.766V144.777C334.801 145.562 334.145 146.131 333.178 146.131H332.188V147.15H333.219C334.344 147.15 335.035 147.684 335.035 148.639V148.65C335.035 149.482 334.338 150.062 333.307 150.062C332.258 150.062 331.549 149.523 331.467 148.756L331.461 148.697H330.207L330.213 148.768C330.324 150.168 331.502 151.158 333.307 151.158ZM341.971 151.205C343.752 151.205 345.006 150.01 345.006 148.275V148.264C345.006 146.641 343.869 145.457 342.281 145.457C341.502 145.457 340.84 145.785 340.482 146.354H340.383L340.641 143.658H344.525V142.545H339.609L339.188 147.455H340.318C340.418 147.262 340.553 147.098 340.705 146.963C341.039 146.658 341.479 146.506 341.994 146.506C343.014 146.506 343.752 147.244 343.752 148.287V148.299C343.752 149.359 343.025 150.104 341.982 150.104C341.057 150.104 340.383 149.512 340.271 148.768L340.266 148.721H339.035L339.041 148.797C339.158 150.168 340.307 151.205 341.971 151.205ZM350.641 151.205C352.586 151.205 353.764 149.5 353.764 146.775V146.764C353.764 144.039 352.586 142.34 350.641 142.34C348.689 142.34 347.518 144.039 347.518 146.764V146.775C347.518 149.5 348.689 151.205 350.641 151.205ZM350.641 150.115C349.504 150.115 348.842 148.844 348.842 146.775V146.764C348.842 144.695 349.504 143.436 350.641 143.436C351.771 143.436 352.439 144.695 352.439 146.764V146.775C352.439 148.844 351.771 150.115 350.641 150.115ZM359.434 151.205C361.379 151.205 362.557 149.5 362.557 146.775V146.764C362.557 144.039 361.379 142.34 359.434 142.34C357.482 142.34 356.311 144.039 356.311 146.764V146.775C356.311 149.5 357.482 151.205 359.434 151.205ZM359.434 150.115C358.297 150.115 357.635 148.844 357.635 146.775V146.764C357.635 144.695 358.297 143.436 359.434 143.436C360.564 143.436 361.232 144.695 361.232 146.764V146.775C361.232 148.844 360.564 150.115 359.434 150.115Z" fill="#2E2A2A"/>
</g>
<defs>
<clipPath id="clip0_0_381">
<rect width="386" height="129" fill="white" transform="translate(18 25)"/>
</clipPath>
</defs>
</svg>
